<?xml version="1.0" encoding="UTF-8" standalone="no"?><!DOCTYPE svg PUBLIC "-//W3C//DTD SVG 1.1//EN" "http://www.w3.org/Graphics/SVG/1.1/DTD/svg11.dtd"><svg width="100%" height="100%" viewBox="0 0 300 301" version="1.1" xmlns="http://www.w3.org/2000/svg" xmlns:xlink="http://www.w3.org/1999/xlink" xml:space="preserve" style="fill-rule:evenodd;clip-rule:evenodd;stroke-linecap:round;stroke-linejoin:round;stroke-miterlimit:1.41421;"><clipPath id="_clip1"><rect id="clockface" x="0" y="0.006" width="300" height="300"/></clipPath><g clip-path="url(#_clip1)"><path d="M150,0.006c82.787,0 150,67.213 150,150c0,82.787 -67.213,150 -150,150c-82.787,0 -150,-67.213 -150,-150c0,-82.787 67.213,-150 150,-150ZM150,6.006c79.476,0 144,64.524 144,144c0,79.476 -64.524,144 -144,144c-79.476,0 -144,-64.524 -144,-144c0,-79.476 64.524,-144 144,-144Z" style="fill:none;stroke-width:1px;stroke:#151c24;"/><circle id="Nabe" cx="150" cy="150.006" r="11" style="fill:#151c24;"/><g id="Sekunden"><path d="M135.315,0.723l-1.989,0.209l0.627,5.967l1.989,-0.209l-0.627,-5.967Z" style="fill:#151c24;"/><path d="M119.791,3.076l-1.956,0.416l1.248,5.869l1.956,-0.416l-1.248,-5.869Z" style="fill:#151c24;"/><path d="M104.599,7.038l-1.903,0.619l1.854,5.706l1.903,-0.618l-1.854,-5.707Z" style="fill:#151c24;"/><path d="M89.903,12.567l-1.827,0.814l2.44,5.481l1.827,-0.813l-2.44,-5.482Z" style="fill:#151c24;"/><path d="M62.641,28.066l-1.618,1.175l3.527,4.854l1.618,-1.175l-3.527,-4.854Z" style="fill:#151c24;"/><path d="M50.374,37.865l-1.487,1.338l4.015,4.459l1.486,-1.338l-4.014,-4.459Z" style="fill:#151c24;"/><path d="M39.197,48.893l-1.338,1.487l4.459,4.014l1.338,-1.486l-4.459,-4.015Z" style="fill:#151c24;"/><path d="M29.235,61.029l-1.175,1.618l4.854,3.527l1.175,-1.618l-4.854,-3.527Z" style="fill:#151c24;"/><path d="M13.375,88.082l-0.814,1.827l5.482,2.44l0.813,-1.827l-5.481,-2.44Z" style="fill:#151c24;"/><path d="M7.651,102.702l-0.618,1.902l5.706,1.855l0.618,-1.903l-5.706,-1.854Z" style="fill:#151c24;"/><path d="M3.486,117.841l-0.416,1.956l5.869,1.248l0.416,-1.956l-5.869,-1.248Z" style="fill:#151c24;"/><path d="M0.926,133.332l-0.209,1.989l5.967,0.627l0.209,-1.989l-5.967,-0.627Z" style="fill:#151c24;"/><path d="M0.717,164.691l0.209,1.989l5.967,-0.627l-0.209,-1.989l-5.967,0.627Z" style="fill:#151c24;"/><path d="M3.07,180.215l0.416,1.956l5.869,-1.248l-0.416,-1.956l-5.869,1.248Z" style="fill:#151c24;"/><path d="M7.033,195.407l0.618,1.903l5.706,-1.855l-0.618,-1.902l-5.706,1.854Z" style="fill:#151c24;"/><path d="M12.561,210.103l0.814,1.827l5.481,-2.44l-0.813,-1.827l-5.482,2.44Z" style="fill:#151c24;"/><path d="M28.06,237.365l1.175,1.618l4.854,-3.527l-1.175,-1.618l-4.854,3.527Z" style="fill:#151c24;"/><path d="M37.859,249.632l1.338,1.487l4.459,-4.015l-1.338,-1.486l-4.459,4.014Z" style="fill:#151c24;"/><path d="M48.887,260.809l1.487,1.338l4.014,-4.459l-1.486,-1.338l-4.015,4.459Z" style="fill:#151c24;"/><path d="M61.023,270.771l1.618,1.175l3.527,-4.854l-1.618,-1.175l-3.527,4.854Z" style="fill:#151c24;"/><path d="M88.076,286.631l1.827,0.814l2.44,-5.482l-1.827,-0.813l-2.44,5.481Z" style="fill:#151c24;"/><path d="M102.696,292.355l1.903,0.618l1.854,-5.706l-1.903,-0.618l-1.854,5.706Z" style="fill:#151c24;"/><path d="M117.835,296.52l1.956,0.416l1.248,-5.869l-1.956,-0.416l-1.248,5.869Z" style="fill:#151c24;"/><path d="M133.326,299.08l1.989,0.209l0.627,-5.967l-1.989,-0.209l-0.627,5.967Z" style="fill:#151c24;"/><path d="M166.047,293.113l-1.989,0.209l0.627,5.967l1.989,-0.209l-0.627,-5.967Z" style="fill:#151c24;"/><path d="M180.917,290.651l-1.956,0.416l1.248,5.869l1.956,-0.416l-1.248,-5.869Z" style="fill:#151c24;"/><path d="M195.45,286.649l-1.903,0.618l1.854,5.706l1.903,-0.618l-1.854,-5.706Z" style="fill:#151c24;"/><path d="M209.484,281.15l-1.827,0.813l2.44,5.482l1.827,-0.814l-2.44,-5.481Z" style="fill:#151c24;"/><path d="M235.45,265.917l-1.618,1.175l3.527,4.854l1.618,-1.175l-3.527,-4.854Z" style="fill:#151c24;"/><path d="M247.098,256.35l-1.486,1.338l4.014,4.459l1.487,-1.338l-4.015,-4.459Z" style="fill:#151c24;"/><path d="M257.682,245.618l-1.338,1.486l4.459,4.015l1.338,-1.487l-4.459,-4.014Z" style="fill:#151c24;"/><path d="M267.086,233.838l-1.175,1.618l4.854,3.527l1.175,-1.618l-4.854,-3.527Z" style="fill:#151c24;"/><path d="M281.957,207.663l-0.813,1.827l5.481,2.44l0.814,-1.827l-5.482,-2.44Z" style="fill:#151c24;"/><path d="M287.261,193.553l-0.618,1.902l5.706,1.855l0.618,-1.903l-5.706,-1.854Z" style="fill:#151c24;"/><path d="M291.061,178.967l-0.416,1.956l5.869,1.248l0.416,-1.956l-5.869,-1.248Z" style="fill:#151c24;"/><path d="M293.316,164.064l-0.209,1.989l5.967,0.627l0.209,-1.989l-5.967,-0.627Z" style="fill:#151c24;"/><path d="M293.107,133.959l0.209,1.989l5.967,-0.627l-0.209,-1.989l-5.967,0.627Z" style="fill:#151c24;"/><path d="M290.645,119.089l0.416,1.956l5.869,-1.248l-0.416,-1.956l-5.869,1.248Z" style="fill:#151c24;"/><path d="M286.643,104.556l0.618,1.903l5.706,-1.855l-0.618,-1.902l-5.706,1.854Z" style="fill:#151c24;"/><path d="M281.144,90.522l0.813,1.827l5.482,-2.44l-0.814,-1.827l-5.481,2.44Z" style="fill:#151c24;"/><path d="M265.911,64.556l1.175,1.618l4.854,-3.527l-1.175,-1.618l-4.854,3.527Z" style="fill:#151c24;"/><path d="M256.344,52.908l1.338,1.486l4.459,-4.014l-1.338,-1.487l-4.459,4.015Z" style="fill:#151c24;"/><path d="M245.612,42.324l1.486,1.338l4.015,-4.459l-1.487,-1.338l-4.014,4.459Z" style="fill:#151c24;"/><path d="M233.832,32.92l1.618,1.175l3.527,-4.854l-1.618,-1.175l-3.527,4.854Z" style="fill:#151c24;"/><path d="M207.657,18.049l1.827,0.813l2.44,-5.481l-1.827,-0.814l-2.44,5.482Z" style="fill:#151c24;"/><path d="M193.547,12.745l1.903,0.618l1.854,-5.706l-1.903,-0.619l-1.854,5.707Z" style="fill:#151c24;"/><path d="M178.961,8.945l1.956,0.416l1.248,-5.869l-1.956,-0.416l-1.248,5.869Z" style="fill:#151c24;"/><path d="M164.058,6.69l1.989,0.209l0.627,-5.967l-1.989,-0.209l-0.627,5.967Z" style="fill:#151c24;"/></g><g id="Stunden"><path d="M150,6.006l-3.429,-6l6.858,0l-3.429,6Z" style="fill:#151c24;"/><path d="M78,25.298l-5.97,-3.481l5.94,-3.429l0.03,6.91Z" style="fill:#151c24;"/><path d="M25.292,78.006l-6.91,-0.03l3.429,-5.94l3.481,5.97Z" style="fill:#151c24;"/><path d="M6,150.006l-6,3.429l0,-6.858l6,3.429Z" style="fill:#151c24;"/><path d="M25.292,222.006l-3.481,5.97l-3.429,-5.94l6.91,-0.03Z" style="fill:#151c24;"/><path d="M78,274.714l-0.03,6.91l-5.94,-3.429l5.97,-3.481Z" style="fill:#151c24;"/><path d="M150,294.006l3.429,6l-6.858,0l3.429,-6Z" style="fill:#151c24;"/><path d="M222,274.714l5.97,3.481l-5.94,3.429l-0.03,-6.91Z" style="fill:#151c24;"/><path d="M274.708,222.006l6.91,0.03l-3.429,5.94l-3.481,-5.97Z" style="fill:#151c24;"/><path d="M294,150.006l6,-3.429l0,6.858l-6,-3.429Z" style="fill:#151c24;"/><path d="M274.708,78.006l3.481,-5.97l3.429,5.94l-6.91,0.03Z" style="fill:#151c24;"/><path d="M222,25.298l0.03,-6.91l5.94,3.429l-5.97,3.481Z" style="fill:#151c24;"/></g><g id="Nummern"><path d="M139.304,10.578l0,0.672l1.382,0l3.871,17.664l-3.37,15.168l-1.417,0l0,0.672l3.283,0l0,-0.672l-1.555,0l3.214,-14.448l3.145,14.448l-1.538,0l0,0.672l5.927,0l0,-0.672l-1.434,0l-4.458,-20.256l2.834,-12.576l1.348,0l0,-0.672l-3.128,0l0,0.672l1.486,0l-2.696,11.904l-2.522,-11.904l1.416,0l0,-0.672l-5.788,0Z" style="fill:#151c24;fill-rule:nonzero;"/><path d="M151.849,10.578l0,0.672l1.59,0l0,32.832l-1.59,0l0,0.672l5.685,0l0,-0.672l-1.59,0l0,-32.832l1.59,0l0,-0.672l-5.685,0Z" style="fill:#151c24;fill-rule:nonzero;"/><path d="M157.811,10.578l0,0.672l1.589,0l0,32.832l-1.589,0l0,0.672l5.685,0l0,-0.672l-1.59,0l0,-32.832l1.59,0l0,-0.672l-5.685,0Z" style="fill:#151c24;fill-rule:nonzero;"/><path d="M27.71,85.822l0.582,0.336l0.691,-1.198l17.233,5.48l11.451,10.502l-0.709,1.227l0.582,0.336l1.642,-2.843l-0.582,-0.336l-0.778,1.347l-10.905,-10.007l14.085,4.5l-0.769,1.332l0.582,0.336l2.963,-5.133l-0.582,-0.336l-0.717,1.242l-19.771,-6.267l-9.474,-8.742l0.674,-1.168l-0.582,-0.336l-1.564,2.709l0.582,0.336l0.743,-1.287l8.961,8.287l-11.571,-3.768l0.709,-1.227l-0.582,-0.336l-2.894,5.014Z" style="fill:#151c24;fill-rule:nonzero;"/><path d="M91.931,276.78l0.336,-0.582l-1.257,-0.726l13.269,-32.522l-0.434,-0.251l-21.62,27.701l-1.287,-0.743l-0.336,0.582l2.859,1.651l0.336,-0.582l-1.347,-0.778l16.165,-20.707l-9.91,24.319l-1.437,-0.83l-0.336,0.582l4.999,2.886Z" style="fill:#151c24;fill-rule:nonzero;"/><path d="M81.216,270.594l0.336,-0.582l-1.377,-0.795l16.416,-28.434l1.377,0.795l0.336,-0.582l-4.924,-2.842l-0.336,0.582l1.377,0.795l-16.416,28.433l-1.377,-0.795l-0.336,0.582l4.924,2.843Z" style="fill:#151c24;fill-rule:nonzero;"/><path d="M76.053,267.613l0.336,-0.582l-1.377,-0.795l16.416,-28.433l1.377,0.794l0.336,-0.582l-4.923,-2.842l-0.336,0.582l1.376,0.795l-16.416,28.433l-1.376,-0.795l-0.336,0.582l4.923,2.843Z" style="fill:#151c24;fill-rule:nonzero;"/><path d="M289.428,142.41l-0.672,0l0,1.59l-32.832,0l0,-1.59l-0.672,0l0,5.685l0.672,0l0,-1.59l32.832,0l0,1.59l0.672,0l0,-5.685Z" style="fill:#151c24;fill-rule:nonzero;"/><path d="M289.428,148.371l-0.672,0l0,1.59l-32.832,0l0,-1.59l-0.672,0l0,5.686l0.672,0l0,-1.59l32.832,0l0,1.59l0.672,0l0,-5.686Z" style="fill:#151c24;fill-rule:nonzero;"/><path d="M289.428,154.333l-0.672,0l0,1.59l-32.832,0l0,-1.59l-0.672,0l0,5.685l0.672,0l0,-1.59l32.832,0l0,1.59l0.672,0l0,-5.685Z" style="fill:#151c24;fill-rule:nonzero;"/><path d="M267.232,77.061l-0.581,0.336l0.794,1.377l-28.433,16.416l-0.795,-1.377l-0.582,0.336l2.843,4.923l0.582,-0.336l-0.795,-1.376l28.433,-16.416l0.795,1.376l0.582,-0.336l-2.843,-4.923Z" style="fill:#151c24;fill-rule:nonzero;"/><path d="M270.213,82.224l-0.582,0.336l0.795,1.377l-28.433,16.416l-0.795,-1.377l-0.582,0.336l2.843,4.923l0.582,-0.336l-0.795,-1.377l28.433,-16.416l0.795,1.377l0.582,-0.336l-2.843,-4.923Z" style="fill:#151c24;fill-rule:nonzero;"/><path d="M73.825,33.941l0.336,0.582l1.197,-0.692l12.185,13.363l4.665,14.82l-1.227,0.709l0.336,0.582l2.844,-1.642l-0.336,-0.582l-1.347,0.778l-4.441,-14.12l9.948,10.94l-1.332,0.769l0.336,0.582l5.133,-2.963l-0.336,-0.582l-1.242,0.717l-13.989,-15.313l-3.834,-12.308l1.167,-0.674l-0.336,-0.582l-2.708,1.564l0.336,0.581l1.287,-0.743l3.617,11.657l-8.137,-9.047l1.228,-0.709l-0.336,-0.582l-5.014,2.895Z" style="fill:#151c24;fill-rule:nonzero;"/><path d="M84.69,27.668l0.336,0.582l1.377,-0.795l16.416,28.433l-1.377,0.795l0.336,0.582l4.923,-2.842l-0.336,-0.582l-1.377,0.795l-16.416,-28.434l1.377,-0.795l-0.336,-0.582l-4.923,2.843Z" style="fill:#151c24;fill-rule:nonzero;"/><path d="M161.163,289.434l0,-0.672l-1.452,0l-4.769,-34.8l-0.501,0l-4.873,34.8l-1.486,0l0,0.672l3.3,0l0,-0.672l-1.555,0l3.646,-26.016l3.577,26.016l-1.659,0l0,0.672l5.772,0Z" style="fill:#151c24;fill-rule:nonzero;"/><path d="M148.79,289.434l0,-0.672l-1.589,0l0,-32.832l1.589,0l0,-0.672l-5.685,0l0,0.672l1.59,0l0,32.832l-1.59,0l0,0.672l5.685,0Z" style="fill:#151c24;fill-rule:nonzero;"/><path d="M276.671,212.32l-0.582,-0.336l-0.795,1.377l-28.433,-16.416l0.795,-1.377l-0.582,-0.336l-2.843,4.923l0.582,0.336l0.795,-1.376l28.433,16.416l-0.795,1.376l0.582,0.336l2.843,-4.923Z" style="fill:#151c24;fill-rule:nonzero;"/><path d="M274.174,216.645l-0.582,-0.336l-0.726,1.257l-32.522,-13.27l-0.251,0.434l27.702,21.62l-0.743,1.287l0.581,0.336l1.651,-2.858l-0.582,-0.336l-0.778,1.347l-20.707,-16.166l24.319,9.91l-0.83,1.437l0.582,0.336l2.886,-4.998Z" style="fill:#151c24;fill-rule:nonzero;"/><path d="M218.077,27.615l-0.336,0.582l1.377,0.795l-16.416,28.434l-1.377,-0.795l-0.336,0.582l4.924,2.842l0.336,-0.582l-1.377,-0.795l16.416,-28.433l1.377,0.795l0.336,-0.582l-4.924,-2.843Z" style="fill:#151c24;fill-rule:nonzero;"/><path d="M10.572,160.079l0.672,0l0,-1.59l32.832,0l0,1.59l0.672,0l0,-5.685l-0.672,0l0,1.589l-32.832,0l0,-1.589l-0.672,0l0,5.685Z" style="fill:#151c24;fill-rule:nonzero;"/><path d="M10.572,154.618l0.672,0l0,-1.382l17.664,-3.871l15.168,3.37l0,1.417l0.672,0l0,-3.284l-0.672,0l0,1.556l-14.448,-3.214l14.448,-3.145l0,1.538l0.672,0l0,-5.928l-0.672,0l0,1.435l-20.256,4.458l-12.576,-2.834l0,-1.348l-0.672,0l0,3.128l0.672,0l0,-1.486l11.904,2.695l-11.904,2.523l0,-1.417l-0.672,0l0,5.789Z" style="fill:#151c24;fill-rule:nonzero;"/><path d="M36.385,234.933l0.582,-0.336l-0.726,-1.257l27.753,-21.53l-0.25,-0.434l-32.575,13.18l-0.743,-1.287l-0.582,0.336l1.651,2.858l0.582,-0.336l-0.778,-1.347l24.354,-9.85l-20.742,16.106l-0.83,-1.437l-0.582,0.336l2.886,4.998Z" style="fill:#151c24;fill-rule:nonzero;"/><path d="M30.199,224.218l0.582,-0.336l-0.795,-1.376l28.433,-16.416l0.795,1.376l0.582,-0.336l-2.843,-4.923l-0.582,0.336l0.795,1.377l-28.433,16.416l-0.795,-1.377l-0.582,0.336l2.843,4.923Z" style="fill:#151c24;fill-rule:nonzero;"/><path d="M27.218,219.055l0.582,-0.336l-0.795,-1.376l28.433,-16.416l0.795,1.376l0.582,-0.336l-2.842,-4.923l-0.582,0.336l0.794,1.377l-28.433,16.416l-0.795,-1.377l-0.582,0.336l2.843,4.923Z" style="fill:#151c24;fill-rule:nonzero;"/><path d="M24.237,213.892l0.582,-0.336l-0.795,-1.376l28.433,-16.416l0.795,1.376l0.582,-0.336l-2.842,-4.923l-0.582,0.336l0.795,1.377l-28.434,16.416l-0.795,-1.377l-0.581,0.336l2.842,4.923Z" style="fill:#151c24;fill-rule:nonzero;"/><path d="M227.021,267.488l-0.336,-0.582l-1.257,0.726l-21.53,-27.753l-0.434,0.251l13.18,32.574l-1.287,0.743l0.336,0.582l2.858,-1.651l-0.336,-0.581l-1.347,0.777l-9.85,-24.353l16.105,20.742l-1.436,0.829l0.336,0.582l4.998,-2.886Z" style="fill:#151c24;fill-rule:nonzero;"/></g><g id="Texte"><g transform="matrix(2.68656e-16,-0.948387,0.939785,2.66219e-16,-160.719,462.551)"><g transform="matrix(0.217553,0.852684,-0.968959,0.24722,566.774,-134.151)"><path d="M393.876,258.772l0,0.168l1.104,0l0,8.208l-1.104,0l0,0.168l7.608,0l0,-2.712l-0.156,0c-0.104,0.464 -0.25,0.858 -0.438,1.182c-0.188,0.324 -0.4,0.588 -0.636,0.792c-0.236,0.204 -0.488,0.35 -0.756,0.438c-0.268,0.088 -0.534,0.132 -0.798,0.132l-1.98,0l0,-8.208l1.104,0l0,-0.168l-3.948,0Z" style="fill:#151c24;fill-rule:nonzero;"/></g><g transform="matrix(0.191594,0.85889,-0.976011,0.217721,586.866,-124.935)"><path d="M398.711,267.232l1.416,3.276l-2.76,0l1.344,-3.276ZM394.775,273.892l0,0.168l2.268,0l0,-0.168l-1.068,0l1.332,-3.216l2.88,0l1.392,3.216l-1.116,0l0,0.168l4.032,0l0,-0.168l-1.032,0l-3.78,-8.712l-0.324,0l-3.576,8.712l-1.008,0Z" style="fill:#151c24;fill-rule:nonzero;"/></g><g transform="matrix(0.158549,0.865599,-0.983636,0.18017,613.021,-111.375)"><path d="M400.418,278.807l0,-3.708c0.088,-0.008 0.176,-0.016 0.264,-0.024c0.088,-0.008 0.176,-0.012 0.264,-0.012c0.304,0 0.554,0.04 0.75,0.12c0.196,0.08 0.35,0.202 0.462,0.366c0.112,0.164 0.192,0.372 0.24,0.624c0.048,0.252 0.072,0.554 0.072,0.906c0,0.216 -0.014,0.428 -0.042,0.636c-0.028,0.208 -0.094,0.394 -0.198,0.558c-0.104,0.164 -0.26,0.294 -0.468,0.39c-0.208,0.096 -0.492,0.144 -0.852,0.144l-0.492,0ZM400.418,283.307l0,-4.332l0.696,0c0.4,0 0.71,0.082 0.93,0.246c0.22,0.164 0.384,0.358 0.492,0.582c0.108,0.224 0.174,0.45 0.198,0.678c0.024,0.228 0.036,0.41 0.036,0.546c0,0.488 -0.038,0.882 -0.114,1.182c-0.076,0.3 -0.186,0.534 -0.33,0.702c-0.144,0.168 -0.318,0.282 -0.522,0.342c-0.204,0.06 -0.434,0.09 -0.69,0.09c-0.248,0 -0.48,-0.012 -0.696,-0.036ZM398.678,275.099l0,8.208l-1.104,0l0,0.168l1.812,0c0.336,0 0.67,0.004 1.002,0.012c0.332,0.008 0.666,0.012 1.002,0.012c0.304,0 0.648,-0.034 1.032,-0.102c0.384,-0.068 0.746,-0.19 1.086,-0.366c0.34,-0.176 0.628,-0.416 0.864,-0.72c0.236,-0.304 0.354,-0.688 0.354,-1.152c0,-0.424 -0.092,-0.776 -0.276,-1.056c-0.184,-0.28 -0.416,-0.506 -0.696,-0.678c-0.28,-0.172 -0.588,-0.298 -0.924,-0.378c-0.336,-0.08 -0.66,-0.132 -0.972,-0.156l0,-0.048c0.192,-0.024 0.426,-0.076 0.702,-0.156c0.276,-0.08 0.542,-0.196 0.798,-0.348c0.256,-0.152 0.474,-0.346 0.654,-0.582c0.18,-0.236 0.27,-0.526 0.27,-0.87c0,-0.384 -0.092,-0.704 -0.276,-0.96c-0.184,-0.256 -0.418,-0.46 -0.702,-0.612c-0.284,-0.152 -0.598,-0.26 -0.942,-0.324c-0.344,-0.064 -0.672,-0.096 -0.984,-0.096c-0.336,0 -0.668,0.006 -0.996,0.018c-0.328,0.012 -0.66,0.018 -0.996,0.018l-1.812,0l0,0.168l1.104,0Z" style="fill:#151c24;fill-rule:nonzero;"/></g><g transform="matrix(0.130892,0.870211,-0.988876,0.148741,632.935,-99.8662)"><path d="M400.835,285.681c0,-0.632 0.028,-1.212 0.084,-1.74c0.056,-0.528 0.172,-0.984 0.348,-1.368c0.176,-0.384 0.432,-0.682 0.768,-0.894c0.336,-0.212 0.784,-0.318 1.344,-0.318c0.6,0 1.07,0.114 1.41,0.342c0.34,0.228 0.594,0.536 0.762,0.924c0.168,0.388 0.27,0.836 0.306,1.344c0.036,0.508 0.054,1.042 0.054,1.602c0,0.624 -0.022,1.202 -0.066,1.734c-0.044,0.532 -0.15,0.992 -0.318,1.38c-0.168,0.388 -0.42,0.692 -0.756,0.912c-0.336,0.22 -0.8,0.33 -1.392,0.33c-0.448,0 -0.834,-0.064 -1.158,-0.192c-0.324,-0.128 -0.588,-0.354 -0.792,-0.678c-0.204,-0.324 -0.354,-0.76 -0.45,-1.308c-0.096,-0.548 -0.144,-1.238 -0.144,-2.07ZM398.879,285.681c0,0.624 0.124,1.204 0.372,1.74c0.248,0.536 0.578,1.002 0.99,1.398c0.412,0.396 0.89,0.708 1.434,0.936c0.544,0.228 1.112,0.342 1.704,0.342c0.6,0 1.17,-0.118 1.71,-0.354c0.54,-0.236 1.016,-0.558 1.428,-0.966c0.412,-0.408 0.74,-0.882 0.984,-1.422c0.244,-0.54 0.366,-1.11 0.366,-1.71c0,-0.688 -0.13,-1.306 -0.39,-1.854c-0.26,-0.548 -0.6,-1.014 -1.02,-1.398c-0.42,-0.384 -0.9,-0.68 -1.44,-0.888c-0.54,-0.208 -1.086,-0.312 -1.638,-0.312c-0.512,0 -1.036,0.106 -1.572,0.318c-0.536,0.212 -1.02,0.514 -1.452,0.906c-0.432,0.392 -0.786,0.864 -1.062,1.416c-0.276,0.552 -0.414,1.168 -0.414,1.848Z" style="fill:#151c24;fill-rule:nonzero;"/></g><g transform="matrix(0.102021,0.874066,-0.993257,0.115933,654.831,-85.8427)"><path d="M399.999,289.45l0,0.168l1.116,0l0,5.604c0,0.36 0.04,0.716 0.12,1.068c0.08,0.352 0.246,0.666 0.498,0.942c0.252,0.276 0.614,0.5 1.086,0.672c0.472,0.172 1.096,0.258 1.872,0.258c0.48,0 0.884,-0.054 1.212,-0.162c0.328,-0.108 0.6,-0.248 0.816,-0.42c0.216,-0.172 0.38,-0.366 0.492,-0.582c0.112,-0.216 0.196,-0.432 0.252,-0.648c0.056,-0.216 0.088,-0.422 0.096,-0.618c0.008,-0.196 0.012,-0.358 0.012,-0.486l0,-5.628l1.116,0l0,-0.168l-2.4,0l0,0.168l1.092,0l0,5.64c0,0.12 -0.004,0.27 -0.012,0.45c-0.008,0.18 -0.036,0.372 -0.084,0.576c-0.048,0.204 -0.124,0.408 -0.228,0.612c-0.104,0.204 -0.252,0.388 -0.444,0.552c-0.192,0.164 -0.434,0.296 -0.726,0.396c-0.292,0.1 -0.654,0.15 -1.086,0.15c-0.44,0 -0.79,-0.086 -1.05,-0.258c-0.26,-0.172 -0.456,-0.398 -0.588,-0.678c-0.132,-0.28 -0.216,-0.598 -0.252,-0.954c-0.036,-0.356 -0.054,-0.722 -0.054,-1.098l0,-5.388l1.104,0l0,-0.168l-3.96,0Z" style="fill:#151c24;fill-rule:nonzero;"/></g><g transform="matrix(0.0762126,0.876694,-0.996243,0.0866052,674.332,-72.0892)"><path d="M403.871,297.117l0,8.208l-1.104,0l0,0.168l3.948,0l0,-0.168l-1.104,0l0,-8.208l0.432,0c0.296,0 0.56,0.03 0.792,0.09c0.232,0.06 0.44,0.164 0.624,0.312c0.184,0.148 0.348,0.354 0.492,0.618c0.144,0.264 0.276,0.6 0.396,1.008l0.156,0l0,-2.196l-7.524,0l0,2.196l0.156,0c0.12,-0.408 0.252,-0.744 0.396,-1.008c0.144,-0.264 0.308,-0.47 0.492,-0.618c0.184,-0.148 0.392,-0.252 0.624,-0.312c0.232,-0.06 0.496,-0.09 0.792,-0.09l0.432,0Z" style="fill:#151c24;fill-rule:nonzero;"/></g><g transform="matrix(0.0579801,0.878088,-0.997827,0.0658865,689.409,-60.5248)"><path d="M401.565,303.702l0,0.168l1.104,0l0,8.208l-1.104,0l0,0.168l3.948,0l0,-0.168l-1.104,0l0,-8.208l1.104,0l0,-0.168l-3.948,0Z" style="fill:#151c24;fill-rule:nonzero;"/></g><g transform="matrix(0.035347,0.87929,-0.999193,0.0401671,702.832,-49.7338)"><path d="M403.846,311.641c0,-0.632 0.028,-1.212 0.084,-1.74c0.056,-0.528 0.172,-0.984 0.348,-1.368c0.176,-0.384 0.432,-0.682 0.768,-0.894c0.336,-0.212 0.784,-0.318 1.344,-0.318c0.6,0 1.07,0.114 1.41,0.342c0.34,0.228 0.594,0.536 0.762,0.924c0.168,0.388 0.27,0.836 0.306,1.344c0.036,0.508 0.054,1.042 0.054,1.602c0,0.624 -0.022,1.202 -0.066,1.734c-0.044,0.532 -0.15,0.992 -0.318,1.38c-0.168,0.388 -0.42,0.692 -0.756,0.912c-0.336,0.22 -0.8,0.33 -1.392,0.33c-0.448,0 -0.834,-0.064 -1.158,-0.192c-0.324,-0.128 -0.588,-0.354 -0.792,-0.678c-0.204,-0.324 -0.354,-0.76 -0.45,-1.308c-0.096,-0.548 -0.144,-1.238 -0.144,-2.07ZM410.206,318.445l0,-0.168c-0.208,0 -0.374,-0.01 -0.498,-0.03c-0.124,-0.02 -0.228,-0.058 -0.312,-0.114c-0.084,-0.056 -0.156,-0.13 -0.216,-0.222c-0.06,-0.092 -0.13,-0.21 -0.21,-0.354c-0.152,-0.272 -0.33,-0.5 -0.534,-0.684c-0.204,-0.184 -0.506,-0.296 -0.906,-0.336c-0.248,-0.024 -0.452,-0.048 -0.612,-0.072c-0.16,-0.024 -0.298,-0.054 -0.414,-0.09c-0.116,-0.036 -0.212,-0.082 -0.288,-0.138c-0.076,-0.056 -0.154,-0.128 -0.234,-0.216c0.12,0.024 0.256,0.036 0.408,0.036c0.6,0 1.17,-0.118 1.71,-0.354c0.54,-0.236 1.016,-0.558 1.428,-0.966c0.412,-0.408 0.74,-0.882 0.984,-1.422c0.244,-0.54 0.366,-1.11 0.366,-1.71c0,-0.688 -0.13,-1.306 -0.39,-1.854c-0.26,-0.548 -0.6,-1.014 -1.02,-1.398c-0.42,-0.384 -0.9,-0.68 -1.44,-0.888c-0.54,-0.208 -1.086,-0.312 -1.638,-0.312c-0.512,0 -1.036,0.106 -1.572,0.318c-0.536,0.212 -1.02,0.514 -1.452,0.906c-0.432,0.392 -0.786,0.864 -1.062,1.416c-0.276,0.552 -0.414,1.168 -0.414,1.848c0,0.552 0.1,1.076 0.3,1.572c0.2,0.496 0.474,0.936 0.822,1.32c0.348,0.384 0.752,0.704 1.212,0.96c0.46,0.256 0.95,0.42 1.47,0.492c0.104,0.112 0.22,0.25 0.348,0.414c0.128,0.164 0.248,0.338 0.36,0.522c0.176,0.312 0.352,0.56 0.528,0.744c0.176,0.184 0.398,0.328 0.666,0.432c0.268,0.104 0.608,0.18 1.02,0.228c0.412,0.048 0.942,0.088 1.59,0.12Z" style="fill:#151c24;fill-rule:nonzero;"/></g><g transform="matrix(0.00676504,0.879974,-0.99997,0.00768755,723.04,-31.9819)"><path d="M402.123,315.485l0,0.168l1.116,0l0,5.604c0,0.36 0.04,0.716 0.12,1.068c0.08,0.352 0.246,0.666 0.498,0.942c0.252,0.276 0.614,0.5 1.086,0.672c0.472,0.172 1.096,0.258 1.872,0.258c0.48,0 0.884,-0.054 1.212,-0.162c0.328,-0.108 0.6,-0.248 0.816,-0.42c0.216,-0.172 0.38,-0.366 0.492,-0.582c0.112,-0.216 0.196,-0.432 0.252,-0.648c0.056,-0.216 0.088,-0.422 0.096,-0.618c0.008,-0.196 0.012,-0.358 0.012,-0.486l0,-5.628l1.116,0l0,-0.168l-2.4,0l0,0.168l1.092,0l0,5.64c0,0.12 -0.004,0.27 -0.012,0.45c-0.008,0.18 -0.036,0.372 -0.084,0.576c-0.048,0.204 -0.124,0.408 -0.228,0.612c-0.104,0.204 -0.252,0.388 -0.444,0.552c-0.192,0.164 -0.434,0.296 -0.726,0.396c-0.292,0.1 -0.654,0.15 -1.086,0.15c-0.44,0 -0.79,-0.086 -1.05,-0.258c-0.26,-0.172 -0.456,-0.398 -0.588,-0.678c-0.132,-0.28 -0.216,-0.598 -0.252,-0.954c-0.036,-0.356 -0.054,-0.722 -0.054,-1.098l0,-5.388l1.104,0l0,-0.168l-3.96,0Z" style="fill:#151c24;fill-rule:nonzero;"/></g><g transform="matrix(-0.0189218,0.879797,-0.999769,-0.021502,740.922,-14.8108)"><path d="M402.262,323.034l0,0.168l1.104,0l0,8.208l-1.104,0l0,0.168l7.668,0l0,-2.628l-0.156,0c-0.08,0.344 -0.196,0.666 -0.348,0.966c-0.152,0.3 -0.342,0.562 -0.57,0.786c-0.228,0.224 -0.49,0.398 -0.786,0.522c-0.296,0.124 -0.628,0.186 -0.996,0.186l-1.968,0l0,-4.332l0.804,0c0.28,0 0.514,0.048 0.702,0.144c0.188,0.096 0.346,0.226 0.474,0.39c0.128,0.164 0.23,0.354 0.306,0.57c0.076,0.216 0.142,0.44 0.198,0.672l0.156,0l0,-3.732l-0.156,0c-0.056,0.272 -0.128,0.518 -0.216,0.738c-0.088,0.22 -0.2,0.408 -0.336,0.564c-0.136,0.156 -0.306,0.276 -0.51,0.36c-0.204,0.084 -0.454,0.126 -0.75,0.126l-0.672,0l0,-3.708l1.908,0c0.392,0 0.724,0.074 0.996,0.222c0.272,0.148 0.494,0.322 0.666,0.522c0.172,0.2 0.306,0.406 0.402,0.618c0.096,0.212 0.164,0.386 0.204,0.522l0.156,0l0,-2.052l-7.176,0Z" style="fill:#151c24;fill-rule:nonzero;"/></g><g transform="matrix(-0.054482,0.878312,-0.998082,-0.0619113,763.675,9.18976)"><path d="M404.844,340.664l0,-8.208c0.08,-0.016 0.184,-0.026 0.312,-0.03c0.128,-0.004 0.272,-0.006 0.432,-0.006c0.696,0 1.258,0.1 1.686,0.3c0.428,0.2 0.76,0.486 0.996,0.858c0.236,0.372 0.394,0.82 0.474,1.344c0.08,0.524 0.12,1.11 0.12,1.758c0,0.264 -0.012,0.546 -0.036,0.846c-0.024,0.3 -0.074,0.6 -0.15,0.9c-0.076,0.3 -0.188,0.586 -0.336,0.858c-0.148,0.272 -0.348,0.514 -0.6,0.726c-0.252,0.212 -0.562,0.38 -0.93,0.504c-0.368,0.124 -0.812,0.186 -1.332,0.186c-0.192,0 -0.404,-0.012 -0.636,-0.036ZM403.104,332.456l0,8.208l-1.104,0l0,0.168l1.104,0c0.456,0 0.91,0.004 1.362,0.012c0.452,0.008 0.906,0.012 1.362,0.012c0.312,0 0.65,-0.024 1.014,-0.072c0.364,-0.048 0.732,-0.134 1.104,-0.258c0.372,-0.124 0.73,-0.29 1.074,-0.498c0.344,-0.208 0.65,-0.472 0.918,-0.792c0.268,-0.32 0.482,-0.7 0.642,-1.14c0.16,-0.44 0.24,-0.952 0.24,-1.536c0,-0.592 -0.08,-1.108 -0.24,-1.548c-0.16,-0.44 -0.376,-0.82 -0.648,-1.14c-0.272,-0.32 -0.584,-0.584 -0.936,-0.792c-0.352,-0.208 -0.724,-0.374 -1.116,-0.498c-0.392,-0.124 -0.788,-0.21 -1.188,-0.258c-0.4,-0.048 -0.78,-0.072 -1.14,-0.072c-0.408,0 -0.816,0.006 -1.224,0.018c-0.408,0.012 -0.816,0.018 -1.224,0.018l-1.104,0l0,0.168l1.104,0Z" style="fill:#151c24;fill-rule:nonzero;"/></g><g transform="matrix(-0.0816557,0.876203,-0.995686,-0.0927905,781.163,29.6536)"><path d="M401.585,340.228l0,0.168l1.104,0l0,8.208l-1.104,0l0,0.168l7.668,0l0,-2.628l-0.156,0c-0.08,0.344 -0.196,0.666 -0.348,0.966c-0.152,0.3 -0.342,0.562 -0.57,0.786c-0.228,0.224 -0.49,0.398 -0.786,0.522c-0.296,0.124 -0.628,0.186 -0.996,0.186l-1.968,0l0,-4.332l0.804,0c0.28,0 0.514,0.048 0.702,0.144c0.188,0.096 0.346,0.226 0.474,0.39c0.128,0.164 0.23,0.354 0.306,0.57c0.076,0.216 0.142,0.44 0.198,0.672l0.156,0l0,-3.732l-0.156,0c-0.056,0.272 -0.128,0.518 -0.216,0.738c-0.088,0.22 -0.2,0.408 -0.336,0.564c-0.136,0.156 -0.306,0.276 -0.51,0.36c-0.204,0.084 -0.454,0.126 -0.75,0.126l-0.672,0l0,-3.708l1.908,0c0.392,0 0.724,0.074 0.996,0.222c0.272,0.148 0.494,0.322 0.666,0.522c0.172,0.2 0.306,0.406 0.402,0.618c0.096,0.212 0.164,0.386 0.204,0.522l0.156,0l0,-2.052l-7.176,0Z" style="fill:#151c24;fill-rule:nonzero;"/></g><g transform="matrix(-0.114454,0.872525,-0.991506,-0.130061,801.016,55.2996)"><path d="M401.812,349.605l0,8.208l-1.104,0l0,0.168l3.96,0l0,-0.168l-1.116,0l0,-4.176l0.804,0c0.28,0 0.514,0.048 0.702,0.144c0.188,0.096 0.346,0.226 0.474,0.39c0.128,0.164 0.23,0.354 0.306,0.57c0.076,0.216 0.142,0.44 0.198,0.672l0.156,0l0,-3.732l-0.156,0c-0.056,0.272 -0.128,0.518 -0.216,0.738c-0.088,0.22 -0.2,0.408 -0.336,0.564c-0.136,0.156 -0.306,0.276 -0.51,0.36c-0.204,0.084 -0.454,0.126 -0.75,0.126l-0.672,0l0,-3.864l1.812,0c0.32,0 0.598,0.044 0.834,0.132c0.236,0.088 0.442,0.214 0.618,0.378c0.176,0.164 0.33,0.362 0.462,0.594c0.132,0.232 0.254,0.492 0.366,0.78l0.156,0l0,-2.052l-7.092,0l0,0.168l1.104,0Z" style="fill:#151c24;fill-rule:nonzero;"/></g><g transform="matrix(-0.139883,0.868811,-0.987285,-0.158958,815.186,75.4246)"><path d="M399.985,355.97l0,0.168l1.104,0l0,8.208l-1.104,0l0,0.168l7.608,0l0,-2.712l-0.156,0c-0.104,0.464 -0.25,0.858 -0.438,1.182c-0.188,0.324 -0.4,0.588 -0.636,0.792c-0.236,0.204 -0.488,0.35 -0.756,0.438c-0.268,0.088 -0.534,0.132 -0.798,0.132l-1.98,0l0,-8.208l1.104,0l0,-0.168l-3.948,0Z" style="fill:#151c24;fill-rule:nonzero;"/></g><g transform="matrix(-0.165054,0.864383,-0.982253,-0.187561,828.908,96.7367)"><path d="M398.792,362.858l0,0.168l1.104,0l0,8.208l-1.104,0l0,0.168l7.668,0l0,-2.628l-0.156,0c-0.08,0.344 -0.196,0.666 -0.348,0.966c-0.152,0.3 -0.342,0.562 -0.57,0.786c-0.228,0.224 -0.49,0.398 -0.786,0.522c-0.296,0.124 -0.628,0.186 -0.996,0.186l-1.968,0l0,-4.332l0.804,0c0.28,0 0.514,0.048 0.702,0.144c0.188,0.096 0.346,0.226 0.474,0.39c0.128,0.164 0.23,0.354 0.306,0.57c0.076,0.216 0.142,0.44 0.198,0.672l0.156,0l0,-3.732l-0.156,0c-0.056,0.272 -0.128,0.518 -0.216,0.738c-0.088,0.22 -0.2,0.408 -0.336,0.564c-0.136,0.156 -0.306,0.276 -0.51,0.36c-0.204,0.084 -0.454,0.126 -0.75,0.126l-0.672,0l0,-3.708l1.908,0c0.392,0 0.724,0.074 0.996,0.222c0.272,0.148 0.494,0.322 0.666,0.522c0.172,0.2 0.306,0.406 0.402,0.618c0.096,0.212 0.164,0.386 0.204,0.522l0.156,0l0,-2.052l-7.176,0Z" style="fill:#151c24;fill-rule:nonzero;"/></g><g transform="matrix(-0.192007,0.858798,-0.975906,-0.21819,842.446,119.765)"><path d="M397.459,369.699l0,0.168l1.116,0l0,5.604c0,0.36 0.04,0.716 0.12,1.068c0.08,0.352 0.246,0.666 0.498,0.942c0.252,0.276 0.614,0.5 1.086,0.672c0.472,0.172 1.096,0.258 1.872,0.258c0.48,0 0.884,-0.054 1.212,-0.162c0.328,-0.108 0.6,-0.248 0.816,-0.42c0.216,-0.172 0.38,-0.366 0.492,-0.582c0.112,-0.216 0.196,-0.432 0.252,-0.648c0.056,-0.216 0.088,-0.422 0.096,-0.618c0.008,-0.196 0.012,-0.358 0.012,-0.486l0,-5.628l1.116,0l0,-0.168l-2.4,0l0,0.168l1.092,0l0,5.64c0,0.12 -0.004,0.27 -0.012,0.45c-0.008,0.18 -0.036,0.372 -0.084,0.576c-0.048,0.204 -0.124,0.408 -0.228,0.612c-0.104,0.204 -0.252,0.388 -0.444,0.552c-0.192,0.164 -0.434,0.296 -0.726,0.396c-0.292,0.1 -0.654,0.15 -1.086,0.15c-0.44,0 -0.79,-0.086 -1.05,-0.258c-0.26,-0.172 -0.456,-0.398 -0.588,-0.678c-0.132,-0.28 -0.216,-0.598 -0.252,-0.954c-0.036,-0.356 -0.054,-0.722 -0.054,-1.098l0,-5.388l1.104,0l0,-0.168l-3.96,0Z" style="fill:#151c24;fill-rule:nonzero;"/></g><g transform="matrix(-0.219187,0.852266,-0.968484,-0.249076,855.609,144.652)"><path d="M398.717,380.963l0,-3.708c0.088,-0.008 0.176,-0.016 0.264,-0.024c0.088,-0.008 0.176,-0.012 0.264,-0.012c0.304,0 0.554,0.04 0.75,0.12c0.196,0.08 0.35,0.202 0.462,0.366c0.112,0.164 0.192,0.372 0.24,0.624c0.048,0.252 0.072,0.554 0.072,0.906c0,0.216 -0.014,0.428 -0.042,0.636c-0.028,0.208 -0.094,0.394 -0.198,0.558c-0.104,0.164 -0.26,0.294 -0.468,0.39c-0.208,0.096 -0.492,0.144 -0.852,0.144l-0.492,0ZM396.977,377.255l0,8.208l-1.104,0l0,0.168l3.948,0l0,-0.168l-1.104,0l0,-4.332l0.792,0c0.376,0 0.668,0.072 0.876,0.216c0.208,0.144 0.364,0.336 0.468,0.576c0.104,0.24 0.17,0.514 0.198,0.822c0.028,0.308 0.05,0.626 0.066,0.954c0.008,0.216 0.026,0.446 0.054,0.69c0.028,0.244 0.102,0.47 0.222,0.678c0.12,0.208 0.304,0.382 0.552,0.522c0.248,0.14 0.592,0.21 1.032,0.21c0.216,0 0.396,-0.014 0.54,-0.042c0.144,-0.028 0.266,-0.066 0.366,-0.114c0.1,-0.048 0.188,-0.106 0.264,-0.174c0.076,-0.068 0.154,-0.142 0.234,-0.222l-0.12,-0.108c-0.08,0.08 -0.172,0.166 -0.276,0.258c-0.104,0.092 -0.236,0.138 -0.396,0.138c-0.144,0 -0.254,-0.028 -0.33,-0.084c-0.076,-0.056 -0.136,-0.168 -0.18,-0.336c-0.044,-0.168 -0.078,-0.404 -0.102,-0.708c-0.024,-0.304 -0.056,-0.708 -0.096,-1.212c-0.032,-0.432 -0.114,-0.776 -0.246,-1.032c-0.132,-0.256 -0.31,-0.456 -0.534,-0.6c-0.224,-0.144 -0.49,-0.252 -0.798,-0.324c-0.308,-0.072 -0.658,-0.144 -1.05,-0.216l0,-0.06c0.272,-0.024 0.548,-0.074 0.828,-0.15c0.28,-0.076 0.534,-0.186 0.762,-0.33c0.228,-0.144 0.414,-0.33 0.558,-0.558c0.144,-0.228 0.216,-0.502 0.216,-0.822c0,-0.4 -0.094,-0.732 -0.282,-0.996c-0.188,-0.264 -0.426,-0.474 -0.714,-0.63c-0.288,-0.156 -0.606,-0.266 -0.954,-0.33c-0.348,-0.064 -0.678,-0.096 -0.99,-0.096c-0.336,0 -0.668,0.006 -0.996,0.018c-0.328,0.012 -0.66,0.018 -0.996,0.018l-1.812,0l0,0.168l1.104,0Z" style="fill:#151c24;fill-rule:nonzero;"/></g><g transform="matrix(-0.241379,0.846248,-0.961646,-0.274294,866.115,166.821)"><path d="M394.492,389.725l0,2.664l0.192,0c0.04,-0.112 0.084,-0.186 0.132,-0.222c0.048,-0.036 0.128,-0.054 0.24,-0.054c0.08,0 0.202,0.024 0.366,0.072c0.164,0.048 0.352,0.098 0.564,0.15c0.212,0.052 0.44,0.102 0.684,0.15c0.244,0.048 0.49,0.072 0.738,0.072c0.496,0 0.946,-0.078 1.35,-0.234c0.404,-0.156 0.752,-0.366 1.044,-0.63c0.292,-0.264 0.518,-0.572 0.678,-0.924c0.16,-0.352 0.24,-0.724 0.24,-1.116c0,-0.4 -0.074,-0.736 -0.222,-1.008c-0.148,-0.272 -0.342,-0.504 -0.582,-0.696c-0.24,-0.192 -0.514,-0.35 -0.822,-0.474c-0.308,-0.124 -0.624,-0.238 -0.948,-0.342c-0.324,-0.104 -0.64,-0.204 -0.948,-0.3c-0.308,-0.096 -0.582,-0.21 -0.822,-0.342c-0.24,-0.132 -0.434,-0.29 -0.582,-0.474c-0.148,-0.184 -0.222,-0.416 -0.222,-0.696c0,-0.184 0.044,-0.364 0.132,-0.54c0.088,-0.176 0.216,-0.336 0.384,-0.48c0.168,-0.144 0.374,-0.26 0.618,-0.348c0.244,-0.088 0.526,-0.132 0.846,-0.132c0.392,0 0.716,0.068 0.972,0.204c0.256,0.136 0.468,0.314 0.636,0.534c0.168,0.22 0.306,0.466 0.414,0.738c0.108,0.272 0.21,0.548 0.306,0.828l0.156,0l0,-2.28l-0.192,0c-0.04,0.096 -0.078,0.162 -0.114,0.198c-0.036,0.036 -0.11,0.054 -0.222,0.054c-0.096,0 -0.202,-0.024 -0.318,-0.072c-0.116,-0.048 -0.25,-0.098 -0.402,-0.15c-0.152,-0.052 -0.328,-0.102 -0.528,-0.15c-0.2,-0.048 -0.432,-0.072 -0.696,-0.072c-0.416,0 -0.802,0.07 -1.158,0.21c-0.356,0.14 -0.662,0.324 -0.918,0.552c-0.256,0.228 -0.456,0.49 -0.6,0.786c-0.144,0.296 -0.216,0.604 -0.216,0.924c0,0.432 0.07,0.792 0.21,1.08c0.14,0.288 0.326,0.53 0.558,0.726c0.232,0.196 0.496,0.356 0.792,0.48c0.296,0.124 0.6,0.232 0.912,0.324c0.312,0.092 0.616,0.182 0.912,0.27c0.296,0.088 0.56,0.196 0.792,0.324c0.232,0.128 0.418,0.288 0.558,0.48c0.14,0.192 0.21,0.436 0.21,0.732c0,0.16 -0.032,0.346 -0.096,0.558c-0.064,0.212 -0.174,0.414 -0.33,0.606c-0.156,0.192 -0.37,0.354 -0.642,0.486c-0.272,0.132 -0.62,0.198 -1.044,0.198c-0.12,0 -0.25,-0.002 -0.39,-0.006c-0.14,-0.004 -0.288,-0.028 -0.444,-0.072c-0.156,-0.044 -0.32,-0.114 -0.492,-0.21c-0.172,-0.096 -0.35,-0.236 -0.534,-0.42c-0.168,-0.16 -0.31,-0.334 -0.426,-0.522c-0.116,-0.188 -0.212,-0.372 -0.288,-0.552c-0.076,-0.18 -0.134,-0.348 -0.174,-0.504c-0.04,-0.156 -0.068,-0.282 -0.084,-0.378l-0.18,0Z" style="fill:#151c24;fill-rule:nonzero;"/></g></g><path d="M102.667,115.443c0,-0.507 0.026,-0.912 0.079,-1.215c0.053,-0.303 0.123,-0.537 0.211,-0.7c0.088,-0.163 0.189,-0.27 0.304,-0.32c0.114,-0.05 0.233,-0.075 0.356,-0.075c0.106,0 0.217,0.018 0.335,0.055c0.117,0.037 0.225,0.137 0.325,0.3c0.1,0.163 0.182,0.415 0.247,0.755c0.064,0.34 0.096,0.817 0.096,1.43c0,0.167 -0.004,0.325 -0.013,0.475c-0.009,0.15 -0.019,0.255 -0.031,0.315c-0.052,0.287 -0.171,0.51 -0.356,0.67c-0.185,0.16 -0.409,0.24 -0.673,0.24c-0.299,0 -0.521,-0.148 -0.665,-0.445c-0.143,-0.297 -0.215,-0.792 -0.215,-1.485ZM101.479,115.263c0,0.313 0.054,0.607 0.163,0.88c0.108,0.273 0.255,0.512 0.44,0.715c0.184,0.203 0.397,0.363 0.638,0.48c0.24,0.117 0.495,0.175 0.765,0.175c0.176,0 0.327,-0.022 0.453,-0.065c0.127,-0.043 0.232,-0.098 0.317,-0.165c0.085,-0.067 0.154,-0.138 0.207,-0.215c0.053,-0.077 0.097,-0.145 0.132,-0.205l0.018,0c0,0.487 -0.018,0.938 -0.053,1.355c-0.035,0.417 -0.103,0.777 -0.203,1.08c-0.099,0.303 -0.234,0.542 -0.404,0.715c-0.171,0.173 -0.393,0.26 -0.669,0.26c-0.053,0 -0.112,-0.002 -0.176,-0.005c-0.065,-0.003 -0.125,-0.02 -0.181,-0.05c-0.055,-0.03 -0.101,-0.075 -0.136,-0.135c-0.035,-0.06 -0.053,-0.147 -0.053,-0.26c0,-0.04 0.006,-0.09 0.018,-0.15c0.012,-0.06 0.023,-0.123 0.035,-0.19c0.012,-0.067 0.023,-0.132 0.035,-0.195c0.012,-0.063 0.018,-0.115 0.018,-0.155c0,-0.093 -0.015,-0.167 -0.044,-0.22c-0.03,-0.053 -0.068,-0.095 -0.115,-0.125c-0.047,-0.03 -0.096,-0.048 -0.149,-0.055c-0.053,-0.007 -0.103,-0.01 -0.15,-0.01c-0.182,0 -0.324,0.05 -0.427,0.15c-0.102,0.1 -0.154,0.257 -0.154,0.47c0,0.093 0.019,0.202 0.058,0.325c0.038,0.123 0.11,0.24 0.215,0.35c0.106,0.11 0.254,0.202 0.445,0.275c0.19,0.073 0.435,0.11 0.734,0.11c0.452,0 0.838,-0.113 1.158,-0.34c0.319,-0.227 0.583,-0.533 0.792,-0.92c0.208,-0.387 0.36,-0.838 0.457,-1.355c0.097,-0.517 0.145,-1.068 0.145,-1.655c0,-0.5 -0.057,-0.945 -0.171,-1.335c-0.115,-0.39 -0.272,-0.718 -0.471,-0.985c-0.199,-0.267 -0.436,-0.47 -0.708,-0.61c-0.273,-0.14 -0.565,-0.21 -0.876,-0.21c-0.264,0 -0.522,0.06 -0.774,0.18c-0.253,0.12 -0.477,0.283 -0.674,0.49c-0.196,0.207 -0.355,0.447 -0.475,0.72c-0.12,0.273 -0.18,0.567 -0.18,0.88Z" style="fill:#151c24;fill-rule:nonzero;"/><path d="M109.909,116.383l0,-3.09c0.065,-0.007 0.129,-0.013 0.194,-0.02c0.064,-0.007 0.129,-0.01 0.193,-0.01c0.223,0 0.407,0.033 0.55,0.1c0.144,0.067 0.257,0.168 0.339,0.305c0.082,0.137 0.141,0.31 0.176,0.52c0.035,0.21 0.053,0.462 0.053,0.755c0,0.18 -0.01,0.357 -0.031,0.53c-0.02,0.173 -0.069,0.328 -0.145,0.465c-0.076,0.137 -0.191,0.245 -0.343,0.325c-0.153,0.08 -0.361,0.12 -0.625,0.12l-0.361,0ZM108.633,113.293l0,6.84l-0.809,0l0,0.14l2.895,0l0,-0.14l-0.81,0l0,-3.61l0.581,0c0.276,0 0.49,0.06 0.642,0.18c0.153,0.12 0.267,0.28 0.344,0.48c0.076,0.2 0.124,0.428 0.145,0.685c0.02,0.257 0.036,0.522 0.048,0.795c0.006,0.18 0.019,0.372 0.04,0.575c0.02,0.203 0.075,0.392 0.163,0.565c0.088,0.173 0.223,0.318 0.404,0.435c0.182,0.117 0.435,0.175 0.757,0.175c0.159,0 0.291,-0.012 0.396,-0.035c0.106,-0.023 0.195,-0.055 0.269,-0.095c0.073,-0.04 0.137,-0.088 0.193,-0.145c0.056,-0.057 0.113,-0.118 0.172,-0.185l-0.088,-0.09c-0.059,0.067 -0.126,0.138 -0.203,0.215c-0.076,0.077 -0.173,0.115 -0.29,0.115c-0.106,0 -0.186,-0.023 -0.242,-0.07c-0.056,-0.047 -0.1,-0.14 -0.132,-0.28c-0.032,-0.14 -0.057,-0.337 -0.075,-0.59c-0.017,-0.253 -0.041,-0.59 -0.07,-1.01c-0.024,-0.36 -0.084,-0.647 -0.181,-0.86c-0.096,-0.213 -0.227,-0.38 -0.391,-0.5c-0.164,-0.12 -0.36,-0.21 -0.585,-0.27c-0.226,-0.06 -0.483,-0.12 -0.77,-0.18l0,-0.05c0.199,-0.02 0.401,-0.062 0.607,-0.125c0.205,-0.063 0.391,-0.155 0.559,-0.275c0.167,-0.12 0.303,-0.275 0.409,-0.465c0.105,-0.19 0.158,-0.418 0.158,-0.685c0,-0.333 -0.069,-0.61 -0.207,-0.83c-0.137,-0.22 -0.312,-0.395 -0.523,-0.525c-0.211,-0.13 -0.445,-0.222 -0.7,-0.275c-0.255,-0.053 -0.497,-0.08 -0.726,-0.08c-0.246,0 -0.49,0.005 -0.73,0.015c-0.241,0.01 -0.484,0.015 -0.731,0.015l-1.328,0l0,0.14l0.809,0Z" style="fill:#151c24;fill-rule:nonzero;"/><path d="M113.605,113.153l0,0.14l0.819,0l0,4.67c0,0.3 0.029,0.597 0.088,0.89c0.058,0.293 0.18,0.555 0.365,0.785c0.185,0.23 0.45,0.417 0.796,0.56c0.346,0.143 0.804,0.215 1.373,0.215c0.352,0 0.648,-0.045 0.889,-0.135c0.24,-0.09 0.44,-0.207 0.598,-0.35c0.159,-0.143 0.279,-0.305 0.361,-0.485c0.082,-0.18 0.144,-0.36 0.185,-0.54c0.041,-0.18 0.064,-0.352 0.07,-0.515c0.006,-0.163 0.009,-0.298 0.009,-0.405l0,-4.69l0.818,0l0,-0.14l-1.76,0l0,0.14l0.801,0l0,4.7c0,0.1 -0.003,0.225 -0.009,0.375c-0.005,0.15 -0.026,0.31 -0.061,0.48c-0.035,0.17 -0.091,0.34 -0.167,0.51c-0.077,0.17 -0.185,0.323 -0.326,0.46c-0.141,0.137 -0.318,0.247 -0.532,0.33c-0.215,0.083 -0.48,0.125 -0.797,0.125c-0.322,0 -0.579,-0.072 -0.77,-0.215c-0.19,-0.143 -0.334,-0.332 -0.431,-0.565c-0.097,-0.233 -0.158,-0.498 -0.185,-0.795c-0.026,-0.297 -0.039,-0.602 -0.039,-0.915l0,-4.49l0.809,0l0,-0.14l-2.904,0Z" style="fill:#151c24;fill-rule:nonzero;"/><path d="M119.95,113.153l0,0.14l0.81,0l0,6.84l-0.81,0l0,0.14l5.623,0l0,-2.19l-0.114,0c-0.059,0.287 -0.144,0.555 -0.255,0.805c-0.112,0.25 -0.251,0.468 -0.418,0.655c-0.168,0.187 -0.36,0.332 -0.577,0.435c-0.217,0.103 -0.46,0.155 -0.73,0.155l-1.443,0l0,-3.61l0.589,0c0.206,0 0.377,0.04 0.515,0.12c0.138,0.08 0.254,0.188 0.348,0.325c0.093,0.137 0.168,0.295 0.224,0.475c0.056,0.18 0.104,0.367 0.145,0.56l0.115,0l0,-3.11l-0.115,0c-0.041,0.227 -0.094,0.432 -0.158,0.615c-0.065,0.183 -0.147,0.34 -0.247,0.47c-0.099,0.13 -0.224,0.23 -0.374,0.3c-0.149,0.07 -0.333,0.105 -0.55,0.105l-0.492,0l0,-3.09l1.399,0c0.287,0 0.531,0.062 0.73,0.185c0.2,0.123 0.362,0.268 0.489,0.435c0.126,0.167 0.224,0.338 0.294,0.515c0.071,0.177 0.121,0.322 0.15,0.435l0.114,0l0,-1.71l-5.262,0Z" style="fill:#151c24;fill-rule:nonzero;"/><path d="M131.601,120.133l0,-6.84c0.059,-0.013 0.135,-0.022 0.229,-0.025c0.094,-0.003 0.199,-0.005 0.317,-0.005c0.51,0 0.922,0.083 1.236,0.25c0.314,0.167 0.558,0.405 0.731,0.715c0.173,0.31 0.289,0.683 0.347,1.12c0.059,0.437 0.088,0.925 0.088,1.465c0,0.22 -0.009,0.455 -0.026,0.705c-0.018,0.25 -0.054,0.5 -0.11,0.75c-0.056,0.25 -0.138,0.488 -0.247,0.715c-0.108,0.227 -0.255,0.428 -0.44,0.605c-0.184,0.177 -0.412,0.317 -0.682,0.42c-0.269,0.103 -0.595,0.155 -0.976,0.155c-0.141,0 -0.297,-0.01 -0.467,-0.03ZM130.325,113.293l0,6.84l-0.809,0l0,0.14l0.809,0c0.335,0 0.668,0.003 0.999,0.01c0.331,0.007 0.664,0.01 0.999,0.01c0.229,0 0.476,-0.02 0.743,-0.06c0.267,-0.04 0.537,-0.112 0.81,-0.215c0.273,-0.103 0.535,-0.242 0.788,-0.415c0.252,-0.173 0.476,-0.393 0.673,-0.66c0.196,-0.267 0.353,-0.583 0.471,-0.95c0.117,-0.367 0.176,-0.793 0.176,-1.28c0,-0.493 -0.059,-0.923 -0.176,-1.29c-0.118,-0.367 -0.276,-0.683 -0.476,-0.95c-0.199,-0.267 -0.428,-0.487 -0.686,-0.66c-0.258,-0.173 -0.531,-0.312 -0.818,-0.415c-0.288,-0.103 -0.578,-0.175 -0.872,-0.215c-0.293,-0.04 -0.572,-0.06 -0.836,-0.06c-0.299,0 -0.598,0.005 -0.897,0.015c-0.299,0.01 -0.599,0.015 -0.898,0.015l-0.809,0l0,0.14l0.809,0Z" style="fill:#151c24;fill-rule:nonzero;"/><path d="M136.776,113.903l0.228,2.13l0.159,0l0.229,-2.13c0.023,-0.133 0.035,-0.273 0.035,-0.42c0,-0.193 -0.037,-0.323 -0.11,-0.39c-0.074,-0.067 -0.151,-0.1 -0.233,-0.1c-0.083,0 -0.16,0.033 -0.234,0.1c-0.073,0.067 -0.11,0.197 -0.11,0.39c0,0.147 0.012,0.287 0.036,0.42Z" style="fill:#151c24;fill-rule:nonzero;"/><path d="M140.428,114.583l1.038,2.73l-2.024,0l0.986,-2.73ZM137.541,120.133l0,0.14l1.663,0l0,-0.14l-0.783,0l0.977,-2.68l2.112,0l1.021,2.68l-0.819,0l0,0.14l2.957,0l0,-0.14l-0.757,0l-2.772,-7.26l-0.237,0l-2.623,7.26l-0.739,0Z" style="fill:#151c24;fill-rule:nonzero;"/><path d="M144.3,113.153l0,0.14l0.809,0l0,6.84l-0.809,0l0,0.14l5.579,0l0,-2.26l-0.115,0c-0.076,0.387 -0.183,0.715 -0.321,0.985c-0.138,0.27 -0.293,0.49 -0.466,0.66c-0.173,0.17 -0.358,0.292 -0.555,0.365c-0.196,0.073 -0.391,0.11 -0.585,0.11l-1.452,0l0,-6.84l0.81,0l0,-0.14l-2.895,0Z" style="fill:#151c24;fill-rule:nonzero;"/><path d="M150.028,113.153l0,0.14l0.81,0l0,6.84l-0.81,0l0,0.14l5.624,0l0,-2.19l-0.115,0c-0.058,0.287 -0.144,0.555 -0.255,0.805c-0.111,0.25 -0.251,0.468 -0.418,0.655c-0.167,0.187 -0.359,0.332 -0.576,0.435c-0.217,0.103 -0.461,0.155 -0.731,0.155l-1.443,0l0,-3.61l0.59,0c0.205,0 0.377,0.04 0.514,0.12c0.138,0.08 0.254,0.188 0.348,0.325c0.094,0.137 0.169,0.295 0.224,0.475c0.056,0.18 0.105,0.367 0.146,0.56l0.114,0l0,-3.11l-0.114,0c-0.041,0.227 -0.094,0.432 -0.159,0.615c-0.064,0.183 -0.146,0.34 -0.246,0.47c-0.1,0.13 -0.225,0.23 -0.374,0.3c-0.15,0.07 -0.333,0.105 -0.55,0.105l-0.493,0l0,-3.09l1.399,0c0.288,0 0.531,0.062 0.731,0.185c0.199,0.123 0.362,0.268 0.488,0.435c0.126,0.167 0.224,0.338 0.295,0.515c0.07,0.177 0.12,0.322 0.149,0.435l0.115,0l0,-1.71l-5.263,0Z" style="fill:#151c24;fill-rule:nonzero;"/><path d="M156.065,118.053l0,2.22l0.141,0c0.029,-0.093 0.062,-0.155 0.097,-0.185c0.035,-0.03 0.094,-0.045 0.176,-0.045c0.058,0 0.148,0.02 0.268,0.06c0.12,0.04 0.258,0.082 0.414,0.125c0.155,0.043 0.322,0.085 0.501,0.125c0.179,0.04 0.36,0.06 0.542,0.06c0.363,0 0.693,-0.065 0.99,-0.195c0.296,-0.13 0.551,-0.305 0.765,-0.525c0.214,-0.22 0.38,-0.477 0.497,-0.77c0.118,-0.293 0.176,-0.603 0.176,-0.93c0,-0.333 -0.054,-0.613 -0.162,-0.84c-0.109,-0.227 -0.251,-0.42 -0.427,-0.58c-0.176,-0.16 -0.377,-0.292 -0.603,-0.395c-0.226,-0.103 -0.458,-0.198 -0.695,-0.285c-0.238,-0.087 -0.47,-0.17 -0.695,-0.25c-0.226,-0.08 -0.427,-0.175 -0.603,-0.285c-0.176,-0.11 -0.318,-0.242 -0.427,-0.395c-0.109,-0.153 -0.163,-0.347 -0.163,-0.58c0,-0.153 0.032,-0.303 0.097,-0.45c0.065,-0.147 0.158,-0.28 0.282,-0.4c0.123,-0.12 0.274,-0.217 0.453,-0.29c0.179,-0.073 0.386,-0.11 0.62,-0.11c0.288,0 0.525,0.057 0.713,0.17c0.188,0.113 0.343,0.262 0.466,0.445c0.124,0.183 0.225,0.388 0.304,0.615c0.079,0.227 0.154,0.457 0.224,0.69l0.115,0l0,-1.9l-0.141,0c-0.029,0.08 -0.057,0.135 -0.084,0.165c-0.026,0.03 -0.08,0.045 -0.162,0.045c-0.071,0 -0.149,-0.02 -0.234,-0.06c-0.085,-0.04 -0.183,-0.082 -0.294,-0.125c-0.112,-0.043 -0.241,-0.085 -0.388,-0.125c-0.146,-0.04 -0.316,-0.06 -0.51,-0.06c-0.305,0 -0.588,0.058 -0.849,0.175c-0.261,0.117 -0.486,0.27 -0.673,0.46c-0.188,0.19 -0.335,0.408 -0.44,0.655c-0.106,0.247 -0.159,0.503 -0.159,0.77c0,0.36 0.052,0.66 0.154,0.9c0.103,0.24 0.239,0.442 0.409,0.605c0.171,0.163 0.364,0.297 0.581,0.4c0.217,0.103 0.44,0.193 0.669,0.27c0.229,0.077 0.452,0.152 0.669,0.225c0.217,0.073 0.41,0.163 0.581,0.27c0.17,0.107 0.306,0.24 0.409,0.4c0.102,0.16 0.154,0.363 0.154,0.61c0,0.133 -0.024,0.288 -0.071,0.465c-0.047,0.177 -0.127,0.345 -0.242,0.505c-0.114,0.16 -0.271,0.295 -0.47,0.405c-0.2,0.11 -0.455,0.165 -0.766,0.165c-0.088,0 -0.183,-0.002 -0.286,-0.005c-0.103,-0.003 -0.211,-0.023 -0.326,-0.06c-0.114,-0.037 -0.234,-0.095 -0.36,-0.175c-0.127,-0.08 -0.257,-0.197 -0.392,-0.35c-0.123,-0.133 -0.227,-0.278 -0.312,-0.435c-0.085,-0.157 -0.156,-0.31 -0.212,-0.46c-0.055,-0.15 -0.098,-0.29 -0.127,-0.42c-0.03,-0.13 -0.05,-0.235 -0.062,-0.315l-0.132,0Z" style="fill:#151c24;fill-rule:nonzero;"/><path d="M161.011,113.153l0,0.14l0.809,0l0,6.84l-0.809,0l0,0.14l2.895,0l0,-0.14l-0.81,0l0,-6.84l0.81,0l0,-0.14l-2.895,0Z" style="fill:#151c24;fill-rule:nonzero;"/><path d="M166.37,114.583l1.038,2.73l-2.024,0l0.986,-2.73ZM163.484,120.133l0,0.14l1.663,0l0,-0.14l-0.783,0l0.976,-2.68l2.112,0l1.021,2.68l-0.818,0l0,0.14l2.957,0l0,-0.14l-0.757,0l-2.772,-7.26l-0.238,0l-2.622,7.26l-0.739,0Z" style="fill:#151c24;fill-rule:nonzero;"/><path d="M176.024,116.743l0,-3.45c0.047,-0.007 0.099,-0.013 0.158,-0.02c0.059,-0.007 0.12,-0.01 0.185,-0.01c0.51,0 0.862,0.153 1.056,0.46c0.193,0.307 0.29,0.75 0.29,1.33c0,0.613 -0.111,1.048 -0.334,1.305c-0.223,0.257 -0.584,0.385 -1.083,0.385l-0.272,0ZM176.024,120.133l0,-3.25l0.36,0c0.47,0 0.877,-0.05 1.224,-0.15c0.346,-0.1 0.633,-0.235 0.862,-0.405c0.229,-0.17 0.399,-0.37 0.51,-0.6c0.112,-0.23 0.168,-0.475 0.168,-0.735c0,-0.387 -0.087,-0.702 -0.26,-0.945c-0.173,-0.243 -0.389,-0.433 -0.647,-0.57c-0.258,-0.137 -0.54,-0.23 -0.845,-0.28c-0.305,-0.05 -0.589,-0.075 -0.853,-0.075c-0.299,0 -0.599,0.005 -0.898,0.015c-0.299,0.01 -0.598,0.015 -0.897,0.015l-0.81,0l0,0.14l0.81,0l0,6.84l-0.81,0l0,0.14l2.895,0l0,-0.14l-0.809,0Z" style="fill:#151c24;fill-rule:nonzero;"/><path d="M181.462,114.583l1.038,2.73l-2.024,0l0.986,-2.73ZM178.576,120.133l0,0.14l1.663,0l0,-0.14l-0.783,0l0.976,-2.68l2.112,0l1.021,2.68l-0.818,0l0,0.14l2.957,0l0,-0.14l-0.757,0l-2.772,-7.26l-0.238,0l-2.622,7.26l-0.739,0Z" style="fill:#151c24;fill-rule:nonzero;"/><path d="M187.323,116.383l0,-3.09c0.064,-0.007 0.129,-0.013 0.193,-0.02c0.065,-0.007 0.129,-0.01 0.194,-0.01c0.223,0 0.406,0.033 0.55,0.1c0.144,0.067 0.257,0.168 0.339,0.305c0.082,0.137 0.141,0.31 0.176,0.52c0.035,0.21 0.053,0.462 0.053,0.755c0,0.18 -0.011,0.357 -0.031,0.53c-0.021,0.173 -0.069,0.328 -0.145,0.465c-0.077,0.137 -0.191,0.245 -0.344,0.325c-0.152,0.08 -0.36,0.12 -0.624,0.12l-0.361,0ZM186.047,113.293l0,6.84l-0.81,0l0,0.14l2.895,0l0,-0.14l-0.809,0l0,-3.61l0.581,0c0.275,0 0.489,0.06 0.642,0.18c0.153,0.12 0.267,0.28 0.343,0.48c0.076,0.2 0.125,0.428 0.145,0.685c0.021,0.257 0.037,0.522 0.049,0.795c0.006,0.18 0.019,0.372 0.039,0.575c0.021,0.203 0.075,0.392 0.163,0.565c0.088,0.173 0.223,0.318 0.405,0.435c0.182,0.117 0.434,0.175 0.757,0.175c0.158,0 0.29,-0.012 0.396,-0.035c0.105,-0.023 0.195,-0.055 0.268,-0.095c0.074,-0.04 0.138,-0.088 0.194,-0.145c0.056,-0.057 0.113,-0.118 0.171,-0.185l-0.088,-0.09c-0.058,0.067 -0.126,0.138 -0.202,0.215c-0.076,0.077 -0.173,0.115 -0.29,0.115c-0.106,0 -0.187,-0.023 -0.242,-0.07c-0.056,-0.047 -0.1,-0.14 -0.132,-0.28c-0.033,-0.14 -0.058,-0.337 -0.075,-0.59c-0.018,-0.253 -0.041,-0.59 -0.071,-1.01c-0.023,-0.36 -0.083,-0.647 -0.18,-0.86c-0.097,-0.213 -0.227,-0.38 -0.392,-0.5c-0.164,-0.12 -0.359,-0.21 -0.585,-0.27c-0.226,-0.06 -0.482,-0.12 -0.77,-0.18l0,-0.05c0.2,-0.02 0.402,-0.062 0.607,-0.125c0.206,-0.063 0.392,-0.155 0.559,-0.275c0.167,-0.12 0.304,-0.275 0.409,-0.465c0.106,-0.19 0.159,-0.418 0.159,-0.685c0,-0.333 -0.069,-0.61 -0.207,-0.83c-0.138,-0.22 -0.312,-0.395 -0.524,-0.525c-0.211,-0.13 -0.444,-0.222 -0.699,-0.275c-0.255,-0.053 -0.497,-0.08 -0.726,-0.08c-0.247,0 -0.49,0.005 -0.731,0.015c-0.24,0.01 -0.484,0.015 -0.73,0.015l-1.329,0l0,0.14l0.81,0Z" style="fill:#151c24;fill-rule:nonzero;"/><path d="M191.08,113.153l0,0.14l0.81,0l0,6.84l-0.81,0l0,0.14l2.896,0l0,-0.14l-0.81,0l0,-6.84l0.81,0l0,-0.14l-2.896,0Z" style="fill:#151c24;fill-rule:nonzero;"/><path d="M194.328,118.053l0,2.22l0.14,0c0.03,-0.093 0.062,-0.155 0.097,-0.185c0.035,-0.03 0.094,-0.045 0.176,-0.045c0.059,0 0.148,0.02 0.269,0.06c0.12,0.04 0.258,0.082 0.413,0.125c0.156,0.043 0.323,0.085 0.502,0.125c0.179,0.04 0.359,0.06 0.541,0.06c0.364,0 0.694,-0.065 0.99,-0.195c0.296,-0.13 0.551,-0.305 0.766,-0.525c0.214,-0.22 0.379,-0.477 0.497,-0.77c0.117,-0.293 0.176,-0.603 0.176,-0.93c0,-0.333 -0.054,-0.613 -0.163,-0.84c-0.109,-0.227 -0.251,-0.42 -0.427,-0.58c-0.176,-0.16 -0.377,-0.292 -0.603,-0.395c-0.225,-0.103 -0.457,-0.198 -0.695,-0.285c-0.237,-0.087 -0.469,-0.17 -0.695,-0.25c-0.226,-0.08 -0.427,-0.175 -0.603,-0.285c-0.176,-0.11 -0.318,-0.242 -0.427,-0.395c-0.108,-0.153 -0.162,-0.347 -0.162,-0.58c0,-0.153 0.032,-0.303 0.096,-0.45c0.065,-0.147 0.159,-0.28 0.282,-0.4c0.123,-0.12 0.274,-0.217 0.453,-0.29c0.179,-0.073 0.386,-0.11 0.621,-0.11c0.287,0 0.525,0.057 0.712,0.17c0.188,0.113 0.344,0.262 0.467,0.445c0.123,0.183 0.224,0.388 0.303,0.615c0.08,0.227 0.154,0.457 0.225,0.69l0.114,0l0,-1.9l-0.141,0c-0.029,0.08 -0.057,0.135 -0.083,0.165c-0.027,0.03 -0.081,0.045 -0.163,0.045c-0.07,0 -0.148,-0.02 -0.233,-0.06c-0.085,-0.04 -0.184,-0.082 -0.295,-0.125c-0.111,-0.043 -0.241,-0.085 -0.387,-0.125c-0.147,-0.04 -0.317,-0.06 -0.511,-0.06c-0.305,0 -0.588,0.058 -0.849,0.175c-0.261,0.117 -0.485,0.27 -0.673,0.46c-0.188,0.19 -0.334,0.408 -0.44,0.655c-0.106,0.247 -0.158,0.503 -0.158,0.77c0,0.36 0.051,0.66 0.154,0.9c0.102,0.24 0.239,0.442 0.409,0.605c0.17,0.163 0.364,0.297 0.581,0.4c0.217,0.103 0.44,0.193 0.668,0.27c0.229,0.077 0.452,0.152 0.669,0.225c0.217,0.073 0.411,0.163 0.581,0.27c0.17,0.107 0.307,0.24 0.409,0.4c0.103,0.16 0.154,0.363 0.154,0.61c0,0.133 -0.023,0.288 -0.07,0.465c-0.047,0.177 -0.128,0.345 -0.242,0.505c-0.115,0.16 -0.272,0.295 -0.471,0.405c-0.199,0.11 -0.455,0.165 -0.766,0.165c-0.088,0 -0.183,-0.002 -0.286,-0.005c-0.102,-0.003 -0.211,-0.023 -0.325,-0.06c-0.115,-0.037 -0.235,-0.095 -0.361,-0.175c-0.126,-0.08 -0.257,-0.197 -0.392,-0.35c-0.123,-0.133 -0.227,-0.278 -0.312,-0.435c-0.085,-0.157 -0.155,-0.31 -0.211,-0.46c-0.056,-0.15 -0.098,-0.29 -0.128,-0.42c-0.029,-0.13 -0.05,-0.235 -0.061,-0.315l-0.132,0Z" style="fill:#151c24;fill-rule:nonzero;"/><path d="M138.14,101.893c-0.331,0.92 -0.731,1.72 -1.2,2.4c-0.47,0.68 -0.992,1.24 -1.568,1.68c-0.576,0.44 -1.2,0.767 -1.872,0.98c-0.672,0.213 -1.371,0.32 -2.096,0.32c-0.224,0 -0.411,0.01 -0.56,0.03c-0.15,0.02 -0.272,0.04 -0.368,0.06c-0.096,0.02 -0.176,0.037 -0.24,0.05c-0.064,0.013 -0.128,0.02 -0.192,0.02c-0.096,0 -0.176,-0.017 -0.24,-0.05c-0.064,-0.033 -0.096,-0.09 -0.096,-0.17c0,-0.107 0.045,-0.17 0.136,-0.19c0.09,-0.02 0.162,-0.03 0.216,-0.03c0.149,0 0.293,0.013 0.432,0.04c0.138,0.027 0.282,0.053 0.432,0.08c0.64,-0.387 1.184,-0.943 1.632,-1.67c0.448,-0.727 0.848,-1.54 1.2,-2.44c0.352,-0.9 0.68,-1.843 0.984,-2.83c0.304,-0.987 0.64,-1.923 1.008,-2.81c0.368,-0.887 0.792,-1.687 1.272,-2.4c0.48,-0.713 1.066,-1.25 1.76,-1.61l-0.032,-0.04c-0.459,0.093 -0.95,0.347 -1.472,0.76c-0.523,0.413 -1.048,0.93 -1.576,1.55c-0.528,0.62 -1.051,1.313 -1.568,2.08c-0.518,0.767 -1.011,1.557 -1.48,2.37c-0.363,0.64 -0.734,1.293 -1.112,1.96c-0.379,0.667 -0.771,1.317 -1.176,1.95c-0.406,0.633 -0.838,1.243 -1.296,1.83c-0.459,0.587 -0.96,1.127 -1.504,1.62l-0.112,-0.2c0.373,-0.733 0.674,-1.52 0.904,-2.36c0.229,-0.84 0.442,-1.693 0.64,-2.56c0.197,-0.867 0.397,-1.727 0.6,-2.58c0.202,-0.853 0.461,-1.667 0.776,-2.44c0.314,-0.773 0.706,-1.487 1.176,-2.14c0.469,-0.653 1.061,-1.207 1.776,-1.66l-0.032,-0.04c-0.704,0.293 -1.35,0.717 -1.936,1.27c-0.587,0.553 -1.131,1.18 -1.632,1.88c-0.502,0.7 -0.966,1.453 -1.392,2.26c-0.427,0.807 -0.838,1.61 -1.232,2.41c-0.395,0.8 -0.774,1.573 -1.136,2.32c-0.363,0.747 -0.736,1.403 -1.12,1.97c-0.384,0.567 -0.795,1.02 -1.232,1.36c-0.438,0.34 -0.928,0.51 -1.472,0.51c-0.139,0 -0.275,-0.013 -0.408,-0.04c-0.134,-0.027 -0.256,-0.08 -0.368,-0.16c-0.112,-0.08 -0.203,-0.187 -0.272,-0.32c-0.07,-0.133 -0.104,-0.307 -0.104,-0.52c0,-0.2 0.053,-0.367 0.16,-0.5c0.106,-0.133 0.24,-0.2 0.4,-0.2c0.138,0 0.25,0.067 0.336,0.2c0.085,0.133 0.128,0.287 0.128,0.46c0,0.107 -0.019,0.22 -0.056,0.34c-0.038,0.12 -0.099,0.193 -0.184,0.22c0.01,0.08 0.074,0.147 0.192,0.2c0.117,0.053 0.229,0.08 0.336,0.08c0.469,0 0.906,-0.183 1.312,-0.55c0.405,-0.367 0.802,-0.853 1.192,-1.46c0.389,-0.607 0.776,-1.3 1.16,-2.08c0.384,-0.78 0.784,-1.59 1.2,-2.43c0.49,-0.973 0.981,-1.887 1.472,-2.74c0.49,-0.853 1.018,-1.617 1.584,-2.29c0.565,-0.673 1.186,-1.243 1.864,-1.71c0.677,-0.467 1.448,-0.807 2.312,-1.02l0.016,0.18c-0.662,0.253 -1.211,0.657 -1.648,1.21c-0.438,0.553 -0.814,1.203 -1.128,1.95c-0.315,0.747 -0.587,1.56 -0.816,2.44c-0.23,0.88 -0.464,1.77 -0.704,2.67c-0.24,0.9 -0.504,1.783 -0.792,2.65c-0.288,0.867 -0.651,1.667 -1.088,2.4l0.032,0.04c0.394,-0.427 0.792,-0.93 1.192,-1.51c0.4,-0.58 0.792,-1.187 1.176,-1.82c0.384,-0.633 0.754,-1.267 1.112,-1.9c0.357,-0.633 0.69,-1.217 1,-1.75c0.832,-1.427 1.594,-2.573 2.288,-3.44c0.693,-0.867 1.333,-1.537 1.92,-2.01c0.586,-0.473 1.122,-0.79 1.608,-0.95c0.485,-0.16 0.936,-0.24 1.352,-0.24c0.16,0 0.314,0.03 0.464,0.09c0.149,0.06 0.224,0.157 0.224,0.29c0,0.107 -0.032,0.173 -0.096,0.2c-0.064,0.027 -0.139,0.04 -0.224,0.04c-0.15,0 -0.307,-0.023 -0.472,-0.07c-0.166,-0.047 -0.328,-0.07 -0.488,-0.07c-0.246,0 -0.494,0.133 -0.744,0.4c-0.251,0.267 -0.502,0.613 -0.752,1.04c-0.251,0.427 -0.494,0.903 -0.728,1.43c-0.235,0.527 -0.451,1.047 -0.648,1.56c-0.198,0.513 -0.368,0.99 -0.512,1.43c-0.144,0.44 -0.259,0.787 -0.344,1.04c-0.171,0.573 -0.368,1.183 -0.592,1.83c-0.224,0.647 -0.502,1.28 -0.832,1.9c-0.331,0.62 -0.734,1.203 -1.208,1.75c-0.475,0.547 -1.054,1.007 -1.736,1.38l0,0.04c1.621,0 2.994,-0.44 4.12,-1.32c1.125,-0.88 2.013,-2.193 2.664,-3.94l0.128,0.04Z" style="fill:#151c24;fill-rule:nonzero;"/><path d="M142.364,100.393l1.04,0c-0.395,0.693 -0.774,1.367 -1.136,2.02c-0.363,0.653 -0.686,1.257 -0.968,1.81c-0.283,0.553 -0.51,1.04 -0.68,1.46c-0.171,0.42 -0.256,0.75 -0.256,0.99c0,0.347 0.144,0.52 0.432,0.52c0.224,0 0.509,-0.137 0.856,-0.41c0.346,-0.273 0.722,-0.65 1.128,-1.13c0.405,-0.48 0.821,-1.04 1.248,-1.68c0.426,-0.64 0.832,-1.32 1.216,-2.04l0.096,0.04c-0.288,0.547 -0.627,1.137 -1.016,1.77c-0.39,0.633 -0.798,1.223 -1.224,1.77c-0.427,0.547 -0.854,1.003 -1.28,1.37c-0.427,0.367 -0.827,0.55 -1.2,0.55c-0.31,0 -0.536,-0.097 -0.68,-0.29c-0.144,-0.193 -0.216,-0.423 -0.216,-0.69c0,-0.187 0.024,-0.37 0.072,-0.55c0.048,-0.18 0.098,-0.363 0.152,-0.55l-0.032,-0.02c-0.139,0.187 -0.312,0.403 -0.52,0.65c-0.208,0.247 -0.432,0.477 -0.672,0.69c-0.24,0.213 -0.488,0.393 -0.744,0.54c-0.256,0.147 -0.502,0.22 -0.736,0.22c-0.395,0 -0.672,-0.153 -0.832,-0.46c-0.16,-0.307 -0.24,-0.653 -0.24,-1.04c0,-0.547 0.138,-1.15 0.416,-1.81c0.277,-0.66 0.629,-1.28 1.056,-1.86c0.426,-0.58 0.89,-1.063 1.392,-1.45c0.501,-0.387 0.976,-0.58 1.424,-0.58c0.213,0 0.4,0.037 0.56,0.11c0.16,0.073 0.293,0.173 0.4,0.3c0.106,0.127 0.189,0.27 0.248,0.43c0.058,0.16 0.104,0.327 0.136,0.5l0.032,0l0.528,-1.18ZM137.132,105.993c0,0.307 0.05,0.543 0.152,0.71c0.101,0.167 0.242,0.25 0.424,0.25c0.181,0 0.394,-0.083 0.64,-0.25c0.245,-0.167 0.501,-0.39 0.768,-0.67c0.266,-0.28 0.53,-0.603 0.792,-0.97c0.261,-0.367 0.493,-0.757 0.696,-1.17c0.202,-0.413 0.368,-0.833 0.496,-1.26c0.128,-0.427 0.192,-0.833 0.192,-1.22c0,-0.307 -0.07,-0.54 -0.208,-0.7c-0.139,-0.16 -0.31,-0.24 -0.512,-0.24c-0.32,0 -0.678,0.173 -1.072,0.52c-0.395,0.347 -0.768,0.79 -1.12,1.33c-0.352,0.54 -0.648,1.137 -0.888,1.79c-0.24,0.653 -0.36,1.28 -0.36,1.88Z" style="fill:#151c24;fill-rule:nonzero;"/><path d="M154.108,93.433c-0.416,0.827 -0.87,1.7 -1.36,2.62c-0.491,0.92 -0.982,1.833 -1.472,2.74c-0.491,0.907 -0.963,1.783 -1.416,2.63c-0.454,0.847 -0.856,1.623 -1.208,2.33c-0.352,0.707 -0.632,1.317 -0.84,1.83c-0.208,0.513 -0.312,0.89 -0.312,1.13c0,0.147 0.029,0.263 0.088,0.35c0.058,0.087 0.146,0.13 0.264,0.13c0.266,0 0.57,-0.133 0.912,-0.4c0.341,-0.267 0.752,-0.687 1.232,-1.26c0.416,-0.507 0.821,-1.07 1.216,-1.69c0.394,-0.62 0.736,-1.23 1.024,-1.83l0.128,0.08c-0.096,0.213 -0.222,0.463 -0.376,0.75c-0.155,0.287 -0.326,0.583 -0.512,0.89c-0.187,0.307 -0.387,0.617 -0.6,0.93c-0.214,0.313 -0.432,0.61 -0.656,0.89c-0.427,0.547 -0.848,0.997 -1.264,1.35c-0.416,0.353 -0.8,0.53 -1.152,0.53c-0.342,0 -0.595,-0.09 -0.76,-0.27c-0.166,-0.18 -0.248,-0.41 -0.248,-0.69c0,-0.253 0.042,-0.5 0.128,-0.74c0.085,-0.24 0.17,-0.453 0.256,-0.64l-0.032,-0.02c-0.171,0.24 -0.36,0.497 -0.568,0.77c-0.208,0.273 -0.43,0.53 -0.664,0.77c-0.235,0.24 -0.483,0.437 -0.744,0.59c-0.262,0.153 -0.531,0.23 -0.808,0.23c-0.384,0 -0.68,-0.147 -0.888,-0.44c-0.208,-0.293 -0.312,-0.64 -0.312,-1.04c0,-0.56 0.154,-1.173 0.464,-1.84c0.309,-0.667 0.696,-1.287 1.16,-1.86c0.464,-0.573 0.962,-1.053 1.496,-1.44c0.533,-0.387 1.029,-0.58 1.488,-0.58c0.341,0 0.613,0.133 0.816,0.4c0.202,0.267 0.298,0.607 0.288,1.02l0.048,0l4.128,-8.22l1.056,0ZM148.428,101.673c0,-0.32 -0.043,-0.6 -0.128,-0.84c-0.086,-0.24 -0.283,-0.36 -0.592,-0.36c-0.214,0 -0.451,0.093 -0.712,0.28c-0.262,0.187 -0.526,0.433 -0.792,0.74c-0.267,0.307 -0.526,0.657 -0.776,1.05c-0.251,0.393 -0.472,0.793 -0.664,1.2c-0.192,0.407 -0.347,0.803 -0.464,1.19c-0.118,0.387 -0.176,0.733 -0.176,1.04c0,0.28 0.042,0.513 0.128,0.7c0.085,0.187 0.24,0.28 0.464,0.28c0.192,0 0.413,-0.093 0.664,-0.28c0.25,-0.187 0.514,-0.43 0.792,-0.73c0.277,-0.3 0.549,-0.643 0.816,-1.03c0.266,-0.387 0.506,-0.773 0.72,-1.16c0.213,-0.387 0.386,-0.763 0.52,-1.13c0.133,-0.367 0.2,-0.683 0.2,-0.95Z" style="fill:#151c24;fill-rule:nonzero;"/><path d="M155.18,101.033c0,-0.187 -0.04,-0.327 -0.12,-0.42c-0.08,-0.093 -0.179,-0.14 -0.296,-0.14c-0.224,0 -0.467,0.11 -0.728,0.33c-0.262,0.22 -0.52,0.493 -0.776,0.82c-0.256,0.327 -0.488,0.677 -0.696,1.05c-0.208,0.373 -0.366,0.707 -0.472,1c0.234,-0.053 0.528,-0.157 0.88,-0.31c0.352,-0.153 0.69,-0.343 1.016,-0.57c0.325,-0.227 0.605,-0.49 0.84,-0.79c0.234,-0.3 0.352,-0.623 0.352,-0.97ZM157.772,102.093c-0.16,0.333 -0.36,0.7 -0.6,1.1c-0.24,0.4 -0.512,0.797 -0.816,1.19c-0.304,0.393 -0.63,0.773 -0.976,1.14c-0.347,0.367 -0.707,0.693 -1.08,0.98c-0.374,0.287 -0.75,0.513 -1.128,0.68c-0.379,0.167 -0.75,0.25 -1.112,0.25c-0.448,0 -0.795,-0.143 -1.04,-0.43c-0.246,-0.287 -0.368,-0.697 -0.368,-1.23c0,-0.587 0.141,-1.203 0.424,-1.85c0.282,-0.647 0.642,-1.243 1.08,-1.79c0.437,-0.547 0.917,-1 1.44,-1.36c0.522,-0.36 1.024,-0.54 1.504,-0.54c0.266,0 0.474,0.07 0.624,0.21c0.149,0.14 0.224,0.343 0.224,0.61c0,0.32 -0.139,0.63 -0.416,0.93c-0.278,0.3 -0.616,0.573 -1.016,0.82c-0.4,0.247 -0.83,0.467 -1.288,0.66c-0.459,0.193 -0.864,0.337 -1.216,0.43c-0.118,0.267 -0.214,0.567 -0.288,0.9c-0.075,0.333 -0.112,0.667 -0.112,1c0,0.16 0.013,0.317 0.04,0.47c0.026,0.153 0.069,0.293 0.128,0.42c0.058,0.127 0.138,0.23 0.24,0.31c0.101,0.08 0.226,0.12 0.376,0.12c0.352,0 0.765,-0.143 1.24,-0.43c0.474,-0.287 0.957,-0.67 1.448,-1.15c0.49,-0.48 0.96,-1.027 1.408,-1.64c0.448,-0.613 0.832,-1.247 1.152,-1.9l0.128,0.1Z" style="fill:#151c24;fill-rule:nonzero;"/><path d="M162.988,93.353c-0.95,1.8 -1.776,3.357 -2.48,4.67c-0.704,1.313 -1.307,2.437 -1.808,3.37c-0.502,0.933 -0.912,1.703 -1.232,2.31c-0.32,0.607 -0.571,1.103 -0.752,1.49c-0.182,0.387 -0.307,0.693 -0.376,0.92c-0.07,0.227 -0.104,0.42 -0.104,0.58c0,0.333 0.117,0.5 0.352,0.5c0.266,0 0.578,-0.137 0.936,-0.41c0.357,-0.273 0.741,-0.647 1.152,-1.12c0.41,-0.473 0.829,-1.027 1.256,-1.66c0.426,-0.633 0.842,-1.31 1.248,-2.03l0.176,0.08c-0.384,0.68 -0.79,1.337 -1.216,1.97c-0.427,0.633 -0.838,1.183 -1.232,1.65c-0.523,0.613 -0.974,1.06 -1.352,1.34c-0.379,0.28 -0.723,0.42 -1.032,0.42c-0.331,0 -0.568,-0.093 -0.712,-0.28c-0.144,-0.187 -0.216,-0.433 -0.216,-0.74c0,-0.28 0.04,-0.57 0.12,-0.87c0.08,-0.3 0.216,-0.66 0.408,-1.08c0.192,-0.42 0.445,-0.93 0.76,-1.53c0.314,-0.6 0.704,-1.337 1.168,-2.21c0.464,-0.873 1.01,-1.913 1.64,-3.12c0.629,-1.207 1.354,-2.623 2.176,-4.25l1.12,0Z" style="fill:#151c24;fill-rule:nonzero;"/><path d="M164.06,101.033c0,-0.187 -0.04,-0.327 -0.12,-0.42c-0.08,-0.093 -0.179,-0.14 -0.296,-0.14c-0.224,0 -0.467,0.11 -0.728,0.33c-0.262,0.22 -0.52,0.493 -0.776,0.82c-0.256,0.327 -0.488,0.677 -0.696,1.05c-0.208,0.373 -0.366,0.707 -0.472,1c0.234,-0.053 0.528,-0.157 0.88,-0.31c0.352,-0.153 0.69,-0.343 1.016,-0.57c0.325,-0.227 0.605,-0.49 0.84,-0.79c0.234,-0.3 0.352,-0.623 0.352,-0.97ZM166.652,102.093c-0.16,0.333 -0.36,0.7 -0.6,1.1c-0.24,0.4 -0.512,0.797 -0.816,1.19c-0.304,0.393 -0.63,0.773 -0.976,1.14c-0.347,0.367 -0.707,0.693 -1.08,0.98c-0.374,0.287 -0.75,0.513 -1.128,0.68c-0.379,0.167 -0.75,0.25 -1.112,0.25c-0.448,0 -0.795,-0.143 -1.04,-0.43c-0.246,-0.287 -0.368,-0.697 -0.368,-1.23c0,-0.587 0.141,-1.203 0.424,-1.85c0.282,-0.647 0.642,-1.243 1.08,-1.79c0.437,-0.547 0.917,-1 1.44,-1.36c0.522,-0.36 1.024,-0.54 1.504,-0.54c0.266,0 0.474,0.07 0.624,0.21c0.149,0.14 0.224,0.343 0.224,0.61c0,0.32 -0.139,0.63 -0.416,0.93c-0.278,0.3 -0.616,0.573 -1.016,0.82c-0.4,0.247 -0.83,0.467 -1.288,0.66c-0.459,0.193 -0.864,0.337 -1.216,0.43c-0.118,0.267 -0.214,0.567 -0.288,0.9c-0.075,0.333 -0.112,0.667 -0.112,1c0,0.16 0.013,0.317 0.04,0.47c0.026,0.153 0.069,0.293 0.128,0.42c0.058,0.127 0.138,0.23 0.24,0.31c0.101,0.08 0.226,0.12 0.376,0.12c0.352,0 0.765,-0.143 1.24,-0.43c0.474,-0.287 0.957,-0.67 1.448,-1.15c0.49,-0.48 0.96,-1.027 1.408,-1.64c0.448,-0.613 0.832,-1.247 1.152,-1.9l0.128,0.1Z" style="fill:#151c24;fill-rule:nonzero;"/><path d="M168.3,100.393c-0.587,1.053 -1.083,1.94 -1.488,2.66c-0.406,0.72 -0.734,1.32 -0.984,1.8c-0.251,0.48 -0.432,0.86 -0.544,1.14c-0.112,0.28 -0.168,0.507 -0.168,0.68c0,0.347 0.112,0.52 0.336,0.52c0.213,0 0.461,-0.097 0.744,-0.29c0.282,-0.193 0.578,-0.443 0.888,-0.75c0.309,-0.307 0.618,-0.653 0.928,-1.04c0.309,-0.387 0.6,-0.77 0.872,-1.15c0.272,-0.38 0.512,-0.747 0.72,-1.1c0.208,-0.353 0.36,-0.643 0.456,-0.87l0.128,0.1c-0.128,0.267 -0.302,0.587 -0.52,0.96c-0.219,0.373 -0.467,0.757 -0.744,1.15c-0.278,0.393 -0.571,0.783 -0.88,1.17c-0.31,0.387 -0.624,0.733 -0.944,1.04c-0.32,0.307 -0.632,0.553 -0.936,0.74c-0.304,0.187 -0.584,0.28 -0.84,0.28c-0.288,0 -0.502,-0.1 -0.64,-0.3c-0.139,-0.2 -0.208,-0.42 -0.208,-0.66c0,-0.28 0.05,-0.577 0.152,-0.89c0.101,-0.313 0.264,-0.697 0.488,-1.15c0.224,-0.453 0.514,-1.003 0.872,-1.65c0.357,-0.647 0.786,-1.443 1.288,-2.39l1.024,0ZM169.228,96.673c0.149,0 0.272,0.063 0.368,0.19c0.096,0.127 0.144,0.283 0.144,0.47c0,0.187 -0.048,0.343 -0.144,0.47c-0.096,0.127 -0.219,0.19 -0.368,0.19c-0.15,0 -0.272,-0.063 -0.368,-0.19c-0.096,-0.127 -0.144,-0.283 -0.144,-0.47c0,-0.187 0.048,-0.343 0.144,-0.47c0.096,-0.127 0.218,-0.19 0.368,-0.19Z" style="fill:#151c24;fill-rule:nonzero;"/><path d="M171.66,100.393l-2.112,3.66l0.032,0.04c0.224,-0.333 0.485,-0.723 0.784,-1.17c0.298,-0.447 0.618,-0.87 0.96,-1.27c0.341,-0.4 0.696,-0.737 1.064,-1.01c0.368,-0.273 0.733,-0.41 1.096,-0.41c0.32,0 0.568,0.11 0.744,0.33c0.176,0.22 0.264,0.503 0.264,0.85c0,0.213 -0.062,0.467 -0.184,0.76c-0.123,0.293 -0.275,0.607 -0.456,0.94c-0.182,0.333 -0.379,0.673 -0.592,1.02c-0.214,0.347 -0.411,0.677 -0.592,0.99c-0.182,0.313 -0.334,0.6 -0.456,0.86c-0.123,0.26 -0.184,0.477 -0.184,0.65c0,0.373 0.149,0.56 0.448,0.56c0.341,0 0.704,-0.143 1.088,-0.43c0.384,-0.287 0.842,-0.77 1.376,-1.45c0.213,-0.267 0.429,-0.56 0.648,-0.88c0.218,-0.32 0.429,-0.637 0.632,-0.95c0.202,-0.313 0.386,-0.61 0.552,-0.89c0.165,-0.28 0.296,-0.513 0.392,-0.7l0.112,0.08c-0.214,0.4 -0.488,0.877 -0.824,1.43c-0.336,0.553 -0.702,1.097 -1.096,1.63c-0.235,0.32 -0.475,0.627 -0.72,0.92c-0.246,0.293 -0.491,0.55 -0.736,0.77c-0.246,0.22 -0.488,0.393 -0.728,0.52c-0.24,0.127 -0.478,0.19 -0.712,0.19c-0.31,0 -0.566,-0.107 -0.768,-0.32c-0.203,-0.213 -0.304,-0.507 -0.304,-0.88c0,-0.4 0.128,-0.837 0.384,-1.31c0.256,-0.473 0.538,-0.95 0.848,-1.43c0.309,-0.48 0.592,-0.94 0.848,-1.38c0.256,-0.44 0.384,-0.827 0.384,-1.16c0,-0.16 -0.043,-0.28 -0.128,-0.36c-0.086,-0.08 -0.198,-0.12 -0.336,-0.12c-0.267,0 -0.566,0.123 -0.896,0.37c-0.331,0.247 -0.67,0.573 -1.016,0.98c-0.347,0.407 -0.694,0.86 -1.04,1.36c-0.347,0.5 -0.67,1 -0.968,1.5c-0.299,0.5 -0.566,0.98 -0.8,1.44c-0.235,0.46 -0.411,0.843 -0.528,1.15l-0.992,0c0.277,-0.587 0.573,-1.183 0.888,-1.79c0.314,-0.607 0.626,-1.207 0.936,-1.8c0.309,-0.593 0.605,-1.167 0.888,-1.72c0.282,-0.553 0.536,-1.057 0.76,-1.51l1.04,-0.06Z" style="fill:#151c24;fill-rule:nonzero;"/><path d="M180.044,101.033c0,-0.187 -0.04,-0.327 -0.12,-0.42c-0.08,-0.093 -0.179,-0.14 -0.296,-0.14c-0.224,0 -0.467,0.11 -0.728,0.33c-0.262,0.22 -0.52,0.493 -0.776,0.82c-0.256,0.327 -0.488,0.677 -0.696,1.05c-0.208,0.373 -0.366,0.707 -0.472,1c0.234,-0.053 0.528,-0.157 0.88,-0.31c0.352,-0.153 0.69,-0.343 1.016,-0.57c0.325,-0.227 0.605,-0.49 0.84,-0.79c0.234,-0.3 0.352,-0.623 0.352,-0.97ZM182.636,102.093c-0.16,0.333 -0.36,0.7 -0.6,1.1c-0.24,0.4 -0.512,0.797 -0.816,1.19c-0.304,0.393 -0.63,0.773 -0.976,1.14c-0.347,0.367 -0.707,0.693 -1.08,0.98c-0.374,0.287 -0.75,0.513 -1.128,0.68c-0.379,0.167 -0.75,0.25 -1.112,0.25c-0.448,0 -0.795,-0.143 -1.04,-0.43c-0.246,-0.287 -0.368,-0.697 -0.368,-1.23c0,-0.587 0.141,-1.203 0.424,-1.85c0.282,-0.647 0.642,-1.243 1.08,-1.79c0.437,-0.547 0.917,-1 1.44,-1.36c0.522,-0.36 1.024,-0.54 1.504,-0.54c0.266,0 0.474,0.07 0.624,0.21c0.149,0.14 0.224,0.343 0.224,0.61c0,0.32 -0.139,0.63 -0.416,0.93c-0.278,0.3 -0.616,0.573 -1.016,0.82c-0.4,0.247 -0.83,0.467 -1.288,0.66c-0.459,0.193 -0.864,0.337 -1.216,0.43c-0.118,0.267 -0.214,0.567 -0.288,0.9c-0.075,0.333 -0.112,0.667 -0.112,1c0,0.16 0.013,0.317 0.04,0.47c0.026,0.153 0.069,0.293 0.128,0.42c0.058,0.127 0.138,0.23 0.24,0.31c0.101,0.08 0.226,0.12 0.376,0.12c0.352,0 0.765,-0.143 1.24,-0.43c0.474,-0.287 0.957,-0.67 1.448,-1.15c0.49,-0.48 0.96,-1.027 1.408,-1.64c0.448,-0.613 0.832,-1.247 1.152,-1.9l0.128,0.1Z" style="fill:#151c24;fill-rule:nonzero;"/><rect x="120.106" y="108.433" width="64" height="0.5" style="fill:#151c24;"/></g><g id="Papierkratzer"><g opacity="0.25"><path d="M101.143,218.956c3.836,-3.438 7.903,-6.29 12.116,-9.099c2.106,-1.404 3.702,-3.583 5.541,-5.166c2.829,-2.435 6.196,-4.592 9.485,-6.386c2.602,-1.418 5.185,-3.116 7.597,-4.321c0.681,-0.34 3.005,-0.912 3.005,-1.773" style="fill:none;stroke-width:0.4px;stroke:#000;"/><path d="M102.802,198.413c8.589,2.943 16.74,8.093 24.607,12.584c1.673,0.955 3.607,2.987 5.354,3.57c0.409,0.136 2.336,0.263 2.336,0.658" style="fill:none;stroke-width:0.4px;stroke:#000;"/><path d="M127.704,198.882c1.871,0.68 4.655,1.264 6.456,2.348c2.818,1.694 6.575,6.281 10.109,6.281" style="fill:none;stroke-width:0.4px;stroke:#000;"/><path d="M122.997,180.365c6.101,3.572 11.266,8.344 17.136,12.25c1.294,0.86 3.278,1.107 4.736,1.745c1.86,0.814 3.867,2.267 5.636,3.287c2.126,1.225 4.093,2.914 6.104,4.227c2.293,1.497 5.555,1.811 8.077,2.442c1.473,0.368 2.649,1.408 4.227,1.408" style="fill:none;stroke-width:0.4px;stroke:#000;"/></g></g></g></svg>