<?xml version="1.0" encoding="UTF-8" standalone="no"?>
<!DOCTYPE svg PUBLIC "-//W3C//DTD SVG 1.1//EN" "http://www.w3.org/Graphics/SVG/1.1/DTD/svg11.dtd">
<svg width="100%" height="100%" viewBox="0 0 300 300" version="1.1" xmlns="http://www.w3.org/2000/svg" xmlns:xlink="http://www.w3.org/1999/xlink" xml:space="preserve" style="fill-rule:evenodd;clip-rule:evenodd;stroke-linecap:round;stroke-linejoin:round;stroke-miterlimit:1.41421;">
    <g transform="matrix(1,0,0,1,-0,-0.00598958)">
        <g id="clockface" transform="matrix(1,0,0,1,-58,-34.994)">
            <clipPath id="_clip1">
                <rect x="58" y="35" width="300" height="300"/>
            </clipPath>
            <g clip-path="url(#_clip1)">
                <path d="M208,35C290.787,35 358,102.213 358,185C358,267.787 290.787,335 208,335C125.213,335 58,267.787 58,185C58,102.213 125.213,35 208,35ZM208,41C287.476,41 352,105.524 352,185C352,264.476 287.476,329 208,329C128.524,329 64,264.476 64,185C64,105.524 128.524,41 208,41Z" style="fill:none;stroke-width:1px;stroke:rgb(21,28,36);"/>
                <g id="Nabe" transform="matrix(2.2,0,0,2.2,-122,-145)">
                    <circle cx="150" cy="150" r="5" style="fill:rgb(21,28,36);"/>
                </g>
                <g id="Sekunden">
                    <g transform="matrix(0.994522,-0.104528,0.0570155,0.542466,-14.6351,27.9569)">
                        <rect x="204" y="54" width="2" height="11" style="fill:rgb(21,28,36);"/>
                    </g>
                    <g transform="matrix(0.978148,-0.207912,0.113406,0.533535,-29.831,52.0889)">
                        <rect x="204" y="54" width="2" height="11" style="fill:rgb(21,28,36);"/>
                    </g>
                    <g transform="matrix(0.951057,-0.309017,0.168555,0.518758,-42.4211,77.6771)">
                        <rect x="204" y="54" width="2" height="11" style="fill:rgb(21,28,36);"/>
                    </g>
                    <g transform="matrix(0.913545,-0.406737,0.221856,0.498298,-52.2676,104.441)">
                        <rect x="204" y="54" width="2" height="11" style="fill:rgb(21,28,36);"/>
                    </g>
                    <g transform="matrix(0.809017,-0.587785,0.32061,0.441282,-63.3292,160.314)">
                        <rect x="204" y="54" width="2" height="11" style="fill:rgb(21,28,36);"/>
                    </g>
                    <g transform="matrix(0.743145,-0.669131,0.36498,0.405352,-64.4232,188.811)">
                        <rect x="204" y="54" width="2" height="11" style="fill:rgb(21,28,36);"/>
                    </g>
                    <g transform="matrix(0.669131,-0.743145,0.405352,0.36498,-62.5325,217.266)">
                        <rect x="204" y="54" width="2" height="11" style="fill:rgb(21,28,36);"/>
                    </g>
                    <g transform="matrix(0.587785,-0.809017,0.441282,0.32061,-57.6778,245.368)">
                        <rect x="204" y="54" width="2" height="11" style="fill:rgb(21,28,36);"/>
                    </g>
                    <g transform="matrix(0.406737,-0.913545,0.498298,0.221856,-39.3209,299.286)">
                        <rect x="204" y="54" width="2" height="11" style="fill:rgb(21,28,36);"/>
                    </g>
                    <g transform="matrix(0.309017,-0.951057,0.518758,0.168555,-26.0199,324.512)">
                        <rect x="204" y="54" width="2" height="11" style="fill:rgb(21,28,36);"/>
                    </g>
                    <g transform="matrix(0.207912,-0.978148,0.533535,0.113406,-10.1549,348.21)">
                        <rect x="204" y="54" width="2" height="11" style="fill:rgb(21,28,36);"/>
                    </g>
                    <g transform="matrix(0.104528,-0.994522,0.542466,0.0570155,8.10019,370.119)">
                        <rect x="204" y="54" width="2" height="11" style="fill:rgb(21,28,36);"/>
                    </g>
                    <g transform="matrix(-0.104528,-0.994522,0.542466,-0.0570155,50.9569,407.635)">
                        <rect x="204" y="54" width="2" height="11" style="fill:rgb(21,28,36);"/>
                    </g>
                    <g transform="matrix(-0.207912,-0.978148,0.533535,-0.113406,75.0889,422.831)">
                        <rect x="204" y="54" width="2" height="11" style="fill:rgb(21,28,36);"/>
                    </g>
                    <g transform="matrix(-0.309017,-0.951057,0.518758,-0.168555,100.677,435.421)">
                        <rect x="204" y="54" width="2" height="11" style="fill:rgb(21,28,36);"/>
                    </g>
                    <g transform="matrix(-0.406737,-0.913545,0.498298,-0.221856,127.441,445.268)">
                        <rect x="204" y="54" width="2" height="11" style="fill:rgb(21,28,36);"/>
                    </g>
                    <g transform="matrix(-0.587785,-0.809017,0.441282,-0.32061,183.314,456.329)">
                        <rect x="204" y="54" width="2" height="11" style="fill:rgb(21,28,36);"/>
                    </g>
                    <g transform="matrix(-0.669131,-0.743145,0.405352,-0.36498,211.811,457.423)">
                        <rect x="204" y="54" width="2" height="11" style="fill:rgb(21,28,36);"/>
                    </g>
                    <g transform="matrix(-0.743145,-0.669131,0.36498,-0.405352,240.266,455.532)">
                        <rect x="204" y="54" width="2" height="11" style="fill:rgb(21,28,36);"/>
                    </g>
                    <g transform="matrix(-0.809017,-0.587785,0.32061,-0.441282,268.368,450.678)">
                        <rect x="204" y="54" width="2" height="11" style="fill:rgb(21,28,36);"/>
                    </g>
                    <g transform="matrix(-0.913545,-0.406737,0.221856,-0.498298,322.286,432.321)">
                        <rect x="204" y="54" width="2" height="11" style="fill:rgb(21,28,36);"/>
                    </g>
                    <g transform="matrix(-0.951057,-0.309017,0.168555,-0.518758,347.512,419.02)">
                        <rect x="204" y="54" width="2" height="11" style="fill:rgb(21,28,36);"/>
                    </g>
                    <g transform="matrix(-0.978148,-0.207912,0.113406,-0.533535,371.21,403.155)">
                        <rect x="204" y="54" width="2" height="11" style="fill:rgb(21,28,36);"/>
                    </g>
                    <g transform="matrix(-0.994522,-0.104528,0.0570155,-0.542466,393.119,384.9)">
                        <rect x="204" y="54" width="2" height="11" style="fill:rgb(21,28,36);"/>
                    </g>
                    <g transform="matrix(0.994522,-0.104528,0.0570155,0.542466,16.0963,320.346)">
                        <rect x="204" y="54" width="2" height="11" style="fill:rgb(21,28,36);"/>
                    </g>
                    <g transform="matrix(0.978148,-0.207912,0.113406,0.533535,31.2951,339.664)">
                        <rect x="204" y="54" width="2" height="11" style="fill:rgb(21,28,36);"/>
                    </g>
                    <g transform="matrix(0.951057,-0.309017,0.168555,0.518758,48.4299,357.288)">
                        <rect x="204" y="54" width="2" height="11" style="fill:rgb(21,28,36);"/>
                    </g>
                    <g transform="matrix(0.913545,-0.406737,0.221856,0.498298,67.313,373.023)">
                        <rect x="204" y="54" width="2" height="11" style="fill:rgb(21,28,36);"/>
                    </g>
                    <g transform="matrix(0.809017,-0.587785,0.32061,0.441282,109.48,398.165)">
                        <rect x="204" y="54" width="2" height="11" style="fill:rgb(21,28,36);"/>
                    </g>
                    <g transform="matrix(0.743145,-0.669131,0.36498,0.405352,132.301,407.296)">
                        <rect x="204" y="54" width="2" height="11" style="fill:rgb(21,28,36);"/>
                    </g>
                    <g transform="matrix(0.669131,-0.743145,0.405352,0.36498,155.952,413.991)">
                        <rect x="204" y="54" width="2" height="11" style="fill:rgb(21,28,36);"/>
                    </g>
                    <g transform="matrix(0.587785,-0.809017,0.441282,0.32061,180.173,418.177)">
                        <rect x="204" y="54" width="2" height="11" style="fill:rgb(21,28,36);"/>
                    </g>
                    <g transform="matrix(0.406737,-0.913545,0.498298,0.221856,229.261,418.867)">
                        <rect x="204" y="54" width="2" height="11" style="fill:rgb(21,28,36);"/>
                    </g>
                    <g transform="matrix(0.309017,-0.951057,0.518758,0.168555,253.591,415.363)">
                        <rect x="204" y="54" width="2" height="11" style="fill:rgb(21,28,36);"/>
                    </g>
                    <g transform="matrix(0.207912,-0.978148,0.533535,0.113406,277.42,409.336)">
                        <rect x="204" y="54" width="2" height="11" style="fill:rgb(21,28,36);"/>
                    </g>
                    <g transform="matrix(0.104528,-0.994522,0.542466,0.0570155,300.49,400.85)">
                        <rect x="204" y="54" width="2" height="11" style="fill:rgb(21,28,36);"/>
                    </g>
                    <g transform="matrix(-0.104528,-0.994522,0.542466,-0.0570155,343.346,376.904)">
                        <rect x="204" y="54" width="2" height="11" style="fill:rgb(21,28,36);"/>
                    </g>
                    <g transform="matrix(-0.207912,-0.978148,0.533535,-0.113406,362.664,361.705)">
                        <rect x="204" y="54" width="2" height="11" style="fill:rgb(21,28,36);"/>
                    </g>
                    <g transform="matrix(-0.309017,-0.951057,0.518758,-0.168555,380.288,344.57)">
                        <rect x="204" y="54" width="2" height="11" style="fill:rgb(21,28,36);"/>
                    </g>
                    <g transform="matrix(-0.406737,-0.913545,0.498298,-0.221856,396.023,325.687)">
                        <rect x="204" y="54" width="2" height="11" style="fill:rgb(21,28,36);"/>
                    </g>
                    <g transform="matrix(-0.587785,-0.809017,0.441282,-0.32061,421.165,283.52)">
                        <rect x="204" y="54" width="2" height="11" style="fill:rgb(21,28,36);"/>
                    </g>
                    <g transform="matrix(-0.669131,-0.743145,0.405352,-0.36498,430.296,260.699)">
                        <rect x="204" y="54" width="2" height="11" style="fill:rgb(21,28,36);"/>
                    </g>
                    <g transform="matrix(-0.743145,-0.669131,0.36498,-0.405352,436.991,237.048)">
                        <rect x="204" y="54" width="2" height="11" style="fill:rgb(21,28,36);"/>
                    </g>
                    <g transform="matrix(-0.809017,-0.587785,0.32061,-0.441282,441.177,212.827)">
                        <rect x="204" y="54" width="2" height="11" style="fill:rgb(21,28,36);"/>
                    </g>
                    <g transform="matrix(-0.913545,-0.406737,0.221856,-0.498298,441.867,163.739)">
                        <rect x="204" y="54" width="2" height="11" style="fill:rgb(21,28,36);"/>
                    </g>
                    <g transform="matrix(-0.951057,-0.309017,0.168555,-0.518758,438.363,139.409)">
                        <rect x="204" y="54" width="2" height="11" style="fill:rgb(21,28,36);"/>
                    </g>
                    <g transform="matrix(-0.978148,-0.207912,0.113406,-0.533535,432.336,115.58)">
                        <rect x="204" y="54" width="2" height="11" style="fill:rgb(21,28,36);"/>
                    </g>
                    <g transform="matrix(-0.994522,-0.104528,0.0570155,-0.542466,423.85,92.5104)">
                        <rect x="204" y="54" width="2" height="11" style="fill:rgb(21,28,36);"/>
                    </g>
                </g>
                <g id="Stunden">
                    <g transform="matrix(-1.7146,5.51457e-16,-4.82437e-16,-1.5,559.493,77)">
                        <path d="M205,24L207,28L203,28L205,24Z" style="fill:rgb(21,28,36);"/>
                    </g>
                    <g transform="matrix(-1.48489,0.8573,-0.75,-1.29904,458.402,-84.2772)">
                        <path d="M205,24L207,28L203,28L205,24Z" style="fill:rgb(21,28,36);"/>
                    </g>
                    <g transform="matrix(-0.8573,1.48489,-1.29904,-0.75,290.216,-173.402)">
                        <path d="M205,24L207,28L203,28L205,24Z" style="fill:rgb(21,28,36);"/>
                    </g>
                    <g transform="matrix(1.22125e-15,1.7146,-1.5,8.88178e-16,100,-166.493)">
                        <path d="M205,24L207,28L203,28L205,24Z" style="fill:rgb(21,28,36);"/>
                    </g>
                    <g transform="matrix(0.8573,1.48489,-1.29904,0.75,-61.2772,-65.4018)">
                        <path d="M205,24L207,28L203,28L205,24Z" style="fill:rgb(21,28,36);"/>
                    </g>
                    <g transform="matrix(1.48489,0.8573,-0.75,1.29904,-150.402,102.784)">
                        <path d="M205,24L207,28L203,28L205,24Z" style="fill:rgb(21,28,36);"/>
                    </g>
                    <g transform="matrix(1.7146,4.19956e-16,-3.67394e-16,1.5,-143.493,293)">
                        <path d="M205,24L207,28L203,28L205,24Z" style="fill:rgb(21,28,36);"/>
                    </g>
                    <g transform="matrix(1.48489,-0.8573,0.75,1.29904,-42.4018,454.277)">
                        <path d="M205,24L207,28L203,28L205,24Z" style="fill:rgb(21,28,36);"/>
                    </g>
                    <g transform="matrix(0.8573,-1.48489,1.29904,0.75,125.784,543.402)">
                        <path d="M205,24L207,28L203,28L205,24Z" style="fill:rgb(21,28,36);"/>
                    </g>
                    <g transform="matrix(-2.22045e-16,-1.7146,1.5,-1.11022e-16,316,536.493)">
                        <path d="M205,24L207,28L203,28L205,24Z" style="fill:rgb(21,28,36);"/>
                    </g>
                    <g transform="matrix(-0.8573,-1.48489,1.29904,-0.75,477.277,435.402)">
                        <path d="M205,24L207,28L203,28L205,24Z" style="fill:rgb(21,28,36);"/>
                    </g>
                    <g transform="matrix(-1.48489,-0.8573,0.75,-1.29904,566.402,267.216)">
                        <path d="M205,24L207,28L203,28L205,24Z" style="fill:rgb(21,28,36);"/>
                    </g>
                </g>
                <g id="Nummern" transform="matrix(1,0,0,1,1.65024,0.049098)">
                    <g transform="matrix(0.36,0,0,1,143.777,59)">
                        <text x="145.361px" y="20.699px" style="font-family:'TimesNewRomanPS-BoldMT', 'Times New Roman', serif;font-weight:700;font-size:48px;fill:rgb(21,28,36);">X<tspan x="177.049px 192.752px " y="20.699px 20.699px ">II</tspan></text>
                    </g>
                    <g transform="matrix(0.18,-0.311769,0.866025,0.5,68.621,174.461)">
                        <text x="151.014px" y="20.699px" style="font-family:'TimesNewRomanPS-BoldMT', 'Times New Roman', serif;font-weight:700;font-size:48px;fill:rgb(21,28,36);">X</text>
                    </g>
                    <g transform="matrix(-0.311769,-0.18,0.5,-0.866025,199.818,325.918)">
                        <text x="145.361px" y="20.699px" style="font-family:'TimesNewRomanPS-BoldMT', 'Times New Roman', serif;font-weight:700;font-size:48px;fill:rgb(21,28,36);">V<tspan x="177.049px 192.752px " y="20.699px 20.699px ">II</tspan></text>
                    </g>
                    <g transform="matrix(3.19744e-16,0.36,-1,8.88178e-16,332.301,123.778)">
                        <text x="148.238px" y="20.699px" style="font-family:'TimesNewRomanPS-BoldMT', 'Times New Roman', serif;font-weight:700;font-size:48px;fill:rgb(21,28,36);">I<tspan x="163.942px 179.645px " y="20.699px 20.699px ">II</tspan></text>
                    </g>
                    <g transform="matrix(0.18,0.311769,-0.866025,0.5,284.536,71.3304)">
                        <text x="151.065px" y="20.699px" style="font-family:'TimesNewRomanPS-BoldMT', 'Times New Roman', serif;font-weight:700;font-size:48px;fill:rgb(21,28,36);">I<tspan x="166.768px " y="20.699px ">I</tspan></text>
                    </g>
                    <g transform="matrix(0.311769,-0.18,0.5,0.866025,90.9727,107.081)">
                        <text x="148.187px" y="20.699px" style="font-family:'TimesNewRomanPS-BoldMT', 'Times New Roman', serif;font-weight:700;font-size:48px;fill:rgb(21,28,36);">X<tspan x="179.875px " y="20.699px ">I</tspan></text>
                    </g>
                    <g transform="matrix(-0.36,1.15785e-16,-3.21625e-16,-1,270.414,310.902)">
                        <text x="148.187px" y="20.699px" style="font-family:'TimesNewRomanPS-BoldMT', 'Times New Roman', serif;font-weight:700;font-size:48px;fill:rgb(21,28,36);">V<tspan x="179.875px " y="20.699px ">I</tspan></text>
                    </g>
                    <g transform="matrix(-0.18,0.311769,-0.866025,-0.5,348.284,193.875)">
                        <text x="148.187px" y="20.699px" style="font-family:'TimesNewRomanPS-BoldMT', 'Times New Roman', serif;font-weight:700;font-size:48px;fill:rgb(21,28,36);">I<tspan x="163.891px " y="20.699px ">V</tspan></text>
                    </g>
                    <g transform="matrix(0.311769,0.18,-0.5,0.866025,219.26,46.2715)">
                        <text x="153.891px" y="20.699px" style="font-family:'TimesNewRomanPS-BoldMT', 'Times New Roman', serif;font-weight:700;font-size:48px;fill:rgb(21,28,36);">I</text>
                    </g>
                    <g transform="matrix(-4.79616e-16,-0.36,1,-1.33227e-15,80.3989,248.573)">
                        <text x="148.187px" y="20.699px" style="font-family:'TimesNewRomanPS-BoldMT', 'Times New Roman', serif;font-weight:700;font-size:48px;fill:rgb(21,28,36);">I<tspan x="163.891px " y="20.699px ">X</tspan></text>
                    </g>
                    <g transform="matrix(-0.18,-0.311769,0.866025,-0.5,129.685,306.924)">
                        <text x="142.534px" y="20.699px" style="font-family:'TimesNewRomanPS-BoldMT', 'Times New Roman', serif;font-weight:700;font-size:48px;fill:rgb(21,28,36);">V<tspan x="174.222px 189.926px 205.63px " y="20.699px 20.699px 20.699px ">III</tspan></text>
                    </g>
                    <g transform="matrix(-0.311769,0.18,-0.5,-0.866025,323.461,263.725)">
                        <text x="151.014px" y="20.699px" style="font-family:'TimesNewRomanPS-BoldMT', 'Times New Roman', serif;font-weight:700;font-size:48px;fill:rgb(21,28,36);">V</text>
                    </g>
                </g>
                <g id="Texte" transform="matrix(1,0,0,1,0,10)">
                    <g transform="matrix(2.68656e-16,-0.948387,0.939785,2.66219e-16,-102.719,497.545)">
                        <g>
                            <g transform="matrix(0.216695,0.863123,-0.9699,0.243502,569.189,-136.441)">
                                <text x="393.733px" y="268.869px" style="font-family:'TimesNewRomanPSMT', 'Times New Roman', serif;font-size:12px;fill:rgb(21,28,36);">L</text>
                            </g>
                            <g transform="matrix(0.19041,0.8693,-0.976841,0.213966,588.878,-127.365)">
                                <text x="395.342px" y="275.186px" style="font-family:'TimesNewRomanPSMT', 'Times New Roman', serif;font-size:12px;fill:rgb(21,28,36);">A</text>
                            </g>
                            <g transform="matrix(0.156618,0.876019,-0.984391,0.175994,615.389,-113.541)">
                                <text x="397.389px" y="284.682px" style="font-family:'TimesNewRomanPSMT', 'Times New Roman', serif;font-size:12px;fill:rgb(21,28,36);">B</text>
                            </g>
                            <g transform="matrix(0.12828,0.880615,-0.989556,0.14415,636.169,-101.417)">
                                <text x="398.659px" y="291.696px" style="font-family:'TimesNewRomanPSMT', 'Times New Roman', serif;font-size:12px;fill:rgb(21,28,36);">O</text>
                            </g>
                            <g transform="matrix(0.0997428,0.884302,-0.993699,0.112082,657.361,-87.7456)">
                                <text x="399.786px" y="299.337px" style="font-family:'TimesNewRomanPSMT', 'Times New Roman', serif;font-size:12px;fill:rgb(21,28,36);">U</text>
                            </g>
                            <g transform="matrix(0.073456,0.886872,-0.996587,0.0825432,677.173,-73.6731)">
                                <text x="400.655px" y="306.997px" style="font-family:'TimesNewRomanPSMT', 'Times New Roman', serif;font-size:12px;fill:rgb(21,28,36);">T</text>
                            </g>
                            <g transform="matrix(0.0556132,0.88817,-0.998045,0.0624932,691.763,-62.41)">
                                <text x="401.185px" y="313.502px" style="font-family:'TimesNewRomanPSMT', 'Times New Roman', serif;font-size:12px;fill:rgb(21,28,36);">I</text>
                            </g>
                            <g transform="matrix(0.0340157,0.889259,-0.999269,0.0382238,704.594,-52.0623)">
                                <text x="401.44px" y="317.041px" style="font-family:'TimesNewRomanPSMT', 'Times New Roman', serif;font-size:12px;fill:rgb(21,28,36);">Q</text>
                            </g>
                            <g transform="matrix(0.00580211,0.88989,-0.999979,0.00651989,724.151,-34.8899)">
                                <text x="401.749px" y="324.74px" style="font-family:'TimesNewRomanPSMT', 'Times New Roman', serif;font-size:12px;fill:rgb(21,28,36);">U</text>
                            </g>
                            <g transform="matrix(-0.0200869,0.889683,-0.999745,-0.0225718,742.254,-17.5078)">
                                <text x="401.803px" y="332.465px" style="font-family:'TimesNewRomanPSMT', 'Times New Roman', serif;font-size:12px;fill:rgb(21,28,36);">E</text>
                            </g>
                            <g transform="matrix(-0.0559584,0.888148,-0.998021,-0.062881,765.015,6.48247)">
                                <text x="401.569px" y="341.652px" style="font-family:'TimesNewRomanPSMT', 'Times New Roman', serif;font-size:12px;fill:rgb(21,28,36);">D</text>
                            </g>
                            <g transform="matrix(-0.0824032,0.886086,-0.995704,-0.0925973,781.986,26.3025)">
                                <text x="401.086px" y="349.35px" style="font-family:'TimesNewRomanPSMT', 'Times New Roman', serif;font-size:12px;fill:rgb(21,28,36);">E</text>
                            </g>
                            <g transform="matrix(-0.114718,0.882484,-0.991656,-0.128909,801.611,51.5524)">
                                <text x="400.192px" y="358.501px" style="font-family:'TimesNewRomanPSMT', 'Times New Roman', serif;font-size:12px;fill:rgb(21,28,36);">F</text>
                            </g>
                            <g transform="matrix(-0.138401,0.879081,-0.987832,-0.155523,814.675,69.9175)">
                                <text x="399.439px" y="364.386px" style="font-family:'TimesNewRomanPSMT', 'Times New Roman', serif;font-size:12px;fill:rgb(21,28,36);">L</text>
                            </g>
                            <g transform="matrix(-0.162529,0.874942,-0.983181,-0.182635,827.799,89.9709)">
                                <text x="398.433px" y="370.847px" style="font-family:'TimesNewRomanPSMT', 'Times New Roman', serif;font-size:12px;fill:rgb(21,28,36);">E</text>
                            </g>
                            <g transform="matrix(-0.188905,0.869628,-0.97721,-0.212275,840.967,111.864)">
                                <text x="397.265px" y="377.255px" style="font-family:'TimesNewRomanPSMT', 'Times New Roman', serif;font-size:12px;fill:rgb(21,28,36);">U</text>
                            </g>
                            <g transform="matrix(-0.216612,0.863144,-0.969924,-0.243409,854.555,136.953)">
                                <text x="395.641px" y="384.787px" style="font-family:'TimesNewRomanPSMT', 'Times New Roman', serif;font-size:12px;fill:rgb(21,28,36);">R</text>
                            </g>
                            <g transform="matrix(-0.239757,0.857004,-0.963023,-0.269418,865.569,159.641)">
                                <text x="393.913px" y="391.696px" style="font-family:'TimesNewRomanPSMT', 'Times New Roman', serif;font-size:12px;fill:rgb(21,28,36);">S</text>
                            </g>
                        </g>
                    </g>
                    <g transform="matrix(0.9,0,0,1,68.1418,98)">
                        <text x="101.418px" y="55.267px" style="font-family:'TimesNewRomanPSMT', 'Times New Roman', serif;font-size:10px;fill:rgb(21,28,36);">9 RUE  D&apos;ALESIA<tspan x="177.88px 180.38px 182.88px 187.421px 194.643px " y="55.267px 55.267px 55.267px 55.267px 55.267px ">  PAR</tspan>IS</text>
                    </g>
                    <g transform="matrix(0.8,0,0,1,82.1537,85)">
                        <text x="120.768px" y="55.267px" style="font-family:'Georgia', serif;font-size:16px;fill:rgb(21,28,36);">Madeleine</text>
                    </g>
                    <g transform="matrix(0.901408,1.73183e-16,1.73183e-16,0.194333,72.4445,120.939)">
                        <rect x="115" y="105.427" width="71" height="2.573" style="fill:rgb(21,28,36);"/>
                    </g>
                </g>
            </g>
        </g>
    </g>
</svg>
