<?xml version="1.0" encoding="UTF-8" standalone="no"?><!DOCTYPE svg PUBLIC "-//W3C//DTD SVG 1.1//EN" "http://www.w3.org/Graphics/SVG/1.1/DTD/svg11.dtd"><svg width="100%" height="100%" viewBox="0 0 300 300" version="1.1" xmlns="http://www.w3.org/2000/svg" xmlns:xlink="http://www.w3.org/1999/xlink" xml:space="preserve" style="fill-rule:evenodd;clip-rule:evenodd;stroke-linecap:round;stroke-linejoin:round;stroke-miterlimit:1.41421;"><clipPath id="_clip1"><rect id="Clockface" x="0" y="0" width="300" height="300"/></clipPath><g clip-path="url(#_clip1)"><path d="M150,0c82.787,0 150,67.213 150,150c0,82.787 -67.213,150 -150,150c-82.787,0 -150,-67.213 -150,-150c0,-82.787 67.213,-150 150,-150ZM150,6c79.476,0 144,64.524 144,144c0,79.476 -64.524,144 -144,144c-79.476,0 -144,-64.524 -144,-144c0,-79.476 64.524,-144 144,-144Z" style="fill:none;stroke-width:1px;stroke:#4b2e17;"/><g id="Sekunden"><path d="M135.315,0l-1.989,0.209l0.627,5.967l1.989,-0.209l-0.627,-5.967Z" style="fill:#4b2e17;"/><path d="M119.791,2.353l-1.956,0.416l1.248,5.868l1.956,-0.415l-1.248,-5.869Z" style="fill:#4b2e17;"/><path d="M104.599,6.315l-1.903,0.618l1.854,5.707l1.903,-0.618l-1.854,-5.707Z" style="fill:#4b2e17;"/><path d="M89.903,11.844l-1.827,0.814l2.44,5.481l1.827,-0.813l-2.44,-5.482Z" style="fill:#4b2e17;"/><path d="M62.641,27.342l-1.618,1.176l3.527,4.854l1.618,-1.175l-3.527,-4.855Z" style="fill:#4b2e17;"/><path d="M50.374,37.142l-1.487,1.338l4.015,4.459l1.486,-1.338l-4.014,-4.459Z" style="fill:#4b2e17;"/><path d="M39.197,48.17l-1.338,1.486l4.459,4.015l1.338,-1.486l-4.459,-4.015Z" style="fill:#4b2e17;"/><path d="M29.235,60.306l-1.175,1.618l4.854,3.527l1.175,-1.618l-4.854,-3.527Z" style="fill:#4b2e17;"/><path d="M13.375,87.359l-0.814,1.827l5.482,2.44l0.813,-1.827l-5.481,-2.44Z" style="fill:#4b2e17;"/><path d="M7.651,101.979l-0.618,1.902l5.706,1.854l0.618,-1.902l-5.706,-1.854Z" style="fill:#4b2e17;"/><path d="M3.486,117.118l-0.416,1.956l5.869,1.248l0.416,-1.957l-5.869,-1.247Z" style="fill:#4b2e17;"/><path d="M0.926,132.609l-0.209,1.989l5.967,0.627l0.209,-1.989l-5.967,-0.627Z" style="fill:#4b2e17;"/><path d="M0.717,163.968l0.209,1.989l5.967,-0.628l-0.209,-1.989l-5.967,0.628Z" style="fill:#4b2e17;"/><path d="M3.07,179.491l0.416,1.957l5.869,-1.248l-0.416,-1.956l-5.869,1.247Z" style="fill:#4b2e17;"/><path d="M7.033,194.684l0.618,1.902l5.706,-1.854l-0.618,-1.902l-5.706,1.854Z" style="fill:#4b2e17;"/><path d="M12.561,209.38l0.814,1.827l5.481,-2.441l-0.813,-1.827l-5.482,2.441Z" style="fill:#4b2e17;"/><path d="M28.06,236.642l1.175,1.618l4.854,-3.527l-1.175,-1.618l-4.854,3.527Z" style="fill:#4b2e17;"/><path d="M37.859,248.909l1.338,1.487l4.459,-4.015l-1.338,-1.487l-4.459,4.015Z" style="fill:#4b2e17;"/><path d="M48.887,260.085l1.487,1.339l4.014,-4.459l-1.486,-1.338l-4.015,4.458Z" style="fill:#4b2e17;"/><path d="M61.023,270.048l1.618,1.175l3.527,-4.854l-1.618,-1.176l-3.527,4.855Z" style="fill:#4b2e17;"/><path d="M88.076,285.908l1.827,0.813l2.44,-5.481l-1.827,-0.813l-2.44,5.481Z" style="fill:#4b2e17;"/><path d="M102.696,291.632l1.903,0.618l1.854,-5.706l-1.903,-0.618l-1.854,5.706Z" style="fill:#4b2e17;"/><path d="M117.835,295.797l1.956,0.416l1.248,-5.869l-1.956,-0.416l-1.248,5.869Z" style="fill:#4b2e17;"/><path d="M133.326,298.357l1.989,0.209l0.627,-5.968l-1.989,-0.209l-0.627,5.968Z" style="fill:#4b2e17;"/><path d="M166.047,292.389l-1.989,0.209l0.627,5.968l1.989,-0.209l-0.627,-5.968Z" style="fill:#4b2e17;"/><path d="M180.917,289.928l-1.956,0.416l1.248,5.869l1.956,-0.416l-1.248,-5.869Z" style="fill:#4b2e17;"/><path d="M195.45,285.926l-1.903,0.618l1.854,5.706l1.903,-0.618l-1.854,-5.706Z" style="fill:#4b2e17;"/><path d="M209.484,280.427l-1.827,0.813l2.44,5.481l1.827,-0.813l-2.44,-5.481Z" style="fill:#4b2e17;"/><path d="M235.45,265.193l-1.618,1.176l3.527,4.854l1.618,-1.175l-3.527,-4.855Z" style="fill:#4b2e17;"/><path d="M247.098,255.627l-1.486,1.338l4.014,4.459l1.487,-1.339l-4.015,-4.458Z" style="fill:#4b2e17;"/><path d="M257.682,244.894l-1.338,1.487l4.459,4.015l1.338,-1.487l-4.459,-4.015Z" style="fill:#4b2e17;"/><path d="M267.086,233.115l-1.175,1.618l4.854,3.527l1.175,-1.618l-4.854,-3.527Z" style="fill:#4b2e17;"/><path d="M281.957,206.939l-0.813,1.827l5.481,2.441l0.814,-1.827l-5.482,-2.441Z" style="fill:#4b2e17;"/><path d="M287.261,192.83l-0.618,1.902l5.706,1.854l0.618,-1.902l-5.706,-1.854Z" style="fill:#4b2e17;"/><path d="M291.061,178.244l-0.416,1.956l5.869,1.248l0.416,-1.957l-5.869,-1.247Z" style="fill:#4b2e17;"/><path d="M293.316,163.34l-0.209,1.989l5.967,0.628l0.209,-1.989l-5.967,-0.628Z" style="fill:#4b2e17;"/><path d="M293.107,133.236l0.209,1.989l5.967,-0.627l-0.209,-1.989l-5.967,0.627Z" style="fill:#4b2e17;"/><path d="M290.645,118.365l0.416,1.957l5.869,-1.248l-0.416,-1.956l-5.869,1.247Z" style="fill:#4b2e17;"/><path d="M286.643,103.833l0.618,1.902l5.706,-1.854l-0.618,-1.902l-5.706,1.854Z" style="fill:#4b2e17;"/><path d="M281.144,89.799l0.813,1.827l5.482,-2.44l-0.814,-1.827l-5.481,2.44Z" style="fill:#4b2e17;"/><path d="M265.911,63.833l1.175,1.618l4.854,-3.527l-1.175,-1.618l-4.854,3.527Z" style="fill:#4b2e17;"/><path d="M256.344,52.185l1.338,1.486l4.459,-4.015l-1.338,-1.486l-4.459,4.015Z" style="fill:#4b2e17;"/><path d="M245.612,41.601l1.486,1.338l4.015,-4.459l-1.487,-1.338l-4.014,4.459Z" style="fill:#4b2e17;"/><path d="M233.832,32.197l1.618,1.175l3.527,-4.854l-1.618,-1.176l-3.527,4.855Z" style="fill:#4b2e17;"/><path d="M207.657,17.326l1.827,0.813l2.44,-5.481l-1.827,-0.814l-2.44,5.482Z" style="fill:#4b2e17;"/><path d="M193.547,12.022l1.903,0.618l1.854,-5.707l-1.903,-0.618l-1.854,5.707Z" style="fill:#4b2e17;"/><path d="M178.961,8.222l1.956,0.415l1.248,-5.868l-1.956,-0.416l-1.248,5.869Z" style="fill:#4b2e17;"/><path d="M164.058,5.967l1.989,0.209l0.627,-5.967l-1.989,-0.209l-0.627,5.967Z" style="fill:#4b2e17;"/></g><g id="Stunden"><path d="M150,6l-3.429,-6l6.858,0l-3.429,6Z" style="fill:#4b2e17;"/><path d="M78,25.292l-5.97,-3.481l5.94,-3.429l0.03,6.91Z" style="fill:#4b2e17;"/><path d="M25.292,78l-6.91,-0.03l3.429,-5.94l3.481,5.97Z" style="fill:#4b2e17;"/><path d="M6,150l-6,3.429l0,-6.858l6,3.429Z" style="fill:#4b2e17;"/><path d="M25.292,222l-3.481,5.97l-3.429,-5.94l6.91,-0.03Z" style="fill:#4b2e17;"/><path d="M78,274.708l-0.03,6.91l-5.94,-3.429l5.97,-3.481Z" style="fill:#4b2e17;"/><path d="M150,294l3.429,6l-6.858,0l3.429,-6Z" style="fill:#4b2e17;"/><path d="M222,274.708l5.97,3.481l-5.94,3.429l-0.03,-6.91Z" style="fill:#4b2e17;"/><path d="M274.708,222l6.91,0.03l-3.429,5.94l-3.481,-5.97Z" style="fill:#4b2e17;"/><path d="M294,150l6,-3.429l0,6.858l-6,-3.429Z" style="fill:#4b2e17;"/><path d="M274.708,78l3.481,-5.97l3.429,5.94l-6.91,0.03Z" style="fill:#4b2e17;"/><path d="M222,25.292l0.03,-6.91l5.94,3.429l-5.97,3.481Z" style="fill:#4b2e17;"/></g><circle cx="150" cy="150" r="5" style="fill:#4b2e17;"/></g></svg>