<?xml version="1.0" encoding="UTF-8" standalone="no"?><!DOCTYPE svg PUBLIC "-//W3C//DTD SVG 1.1//EN" "http://www.w3.org/Graphics/SVG/1.1/DTD/svg11.dtd"><svg width="100%" height="100%" viewBox="0 0 40 150" version="1.1" xmlns="http://www.w3.org/2000/svg" xmlns:xlink="http://www.w3.org/1999/xlink" xml:space="preserve" style="fill-rule:evenodd;clip-rule:evenodd;stroke-linejoin:round;stroke-miterlimit:1.41421;"><clipPath id="_clip1"><rect id="hand-minutes" x="0" y="0.006" width="40" height="150"/></clipPath><g clip-path="url(#_clip1)"><path d="M23.032,152l-6,0l0,-13.282c-3.786,-1.258 -6.519,-4.831 -6.519,-9.036l0,-7.611c-2.412,-2.428 -3.903,-5.771 -3.903,-9.46c0,-3.684 1.487,-7.023 3.894,-9.45l-4.121,-2.307c-0.025,-0.007 -0.049,-0.014 -0.074,-0.021c3.051,-1.082 6.361,-4.762 7.806,-9.617c1.445,-4.855 0.686,-9.746 -1.276,-12.32c0.061,0.018 0.121,0.037 0.181,0.056c-0.035,-0.108 -0.053,-0.218 -0.053,-0.33c0,-0.542 0.424,-1.046 1.153,-1.468c-0.787,-1.149 -1.247,-2.539 -1.247,-4.036c0,-2.951 1.788,-5.487 4.34,-6.582l0,-39.153c0,-1.556 1.263,-2.819 2.819,-2.819c1.556,0 2.819,1.263 2.819,2.819l0,39.153c2.552,1.095 4.34,3.631 4.34,6.582c0,1.497 -0.46,2.887 -1.247,4.036c0.729,0.422 1.153,0.926 1.153,1.468c0,0.371 -0.2,0.726 -0.56,1.047c-1.57,2.707 -2.074,7.142 -0.763,11.547c1.445,4.855 4.756,8.535 7.806,9.617l-0.055,0.016l0.166,0l-4.131,2.312c2.407,2.427 3.894,5.766 3.894,9.45c0,3.689 -1.491,7.032 -3.903,9.46l0,7.611c0,4.205 -2.733,7.778 -6.519,9.036l0,13.282ZM13.321,124.236l0,4.956c0,3.704 3.007,6.711 6.711,6.711c3.704,0 6.711,-3.007 6.711,-6.711l0,-4.956c-1.975,1.143 -4.267,1.798 -6.711,1.798c-2.444,0 -4.736,-0.655 -6.711,-1.798ZM13.582,104.885c-2.21,1.847 -3.617,4.624 -3.617,7.726c0,5.556 4.511,10.067 10.067,10.067c5.556,0 10.067,-4.511 10.067,-10.067c0,-3.102 -1.407,-5.879 -3.617,-7.726l-6.45,3.611l-6.45,-3.611ZM16.177,80.869c2.719,2.645 3.821,7.192 2.479,11.699c-1.261,4.236 -4.349,7.321 -7.807,8.281l2.716,0c1.919,-1.058 4.123,-1.66 6.467,-1.66c2.344,0 4.548,0.602 6.467,1.66l2.541,0c-3.458,-0.96 -6.546,-4.045 -7.807,-8.281c-1.332,-4.476 -0.254,-8.991 2.424,-11.644c-1.06,0.241 -2.3,0.38 -3.625,0.38c-1.422,0 -2.746,-0.16 -3.855,-0.435Z" style="fill:#151c24;"/></g></svg>