<?xml version="1.0" encoding="UTF-8" standalone="no"?><!DOCTYPE svg PUBLIC "-//W3C//DTD SVG 1.1//EN" "http://www.w3.org/Graphics/SVG/1.1/DTD/svg11.dtd"><svg width="100%" height="100%" viewBox="0 0 40 150" version="1.1" xmlns="http://www.w3.org/2000/svg" xmlns:xlink="http://www.w3.org/1999/xlink" xml:space="preserve" style="fill-rule:evenodd;clip-rule:evenodd;stroke-linejoin:round;stroke-miterlimit:1.41421;"><clipPath id="_clip1"><rect id="hand-hours" x="0" y="0" width="40" height="150"/></clipPath><g clip-path="url(#_clip1)"><path d="M17.349,153l0,-14.143c-3.354,-1.055 -5.79,-4.192 -5.79,-7.892l0,-3.584c-0.407,0.049 -0.821,0.074 -1.241,0.074c-5.706,0 -10.339,-4.633 -10.339,-10.339c0,-4.959 3.499,-9.107 8.161,-10.109c-0.062,-2.798 -1.095,-5.343 -2.616,-6.918c-0.124,-0.091 -0.244,-0.186 -0.361,-0.285l0.058,-0.01l-0.019,-0.017l0.055,0.011c2.546,-0.449 5.713,-1.7 8.44,-3.871c1.296,-1.032 2.412,-2.207 3.334,-3.412c-0.087,-0.275 -0.134,-0.567 -0.134,-0.871l0,-34.739c0,-1.598 1.297,-2.895 2.895,-2.895c1.598,0 2.895,1.297 2.895,2.895l0,34.739c0,0.304 -0.047,0.596 -0.134,0.871c0.922,1.205 2.038,2.38 3.333,3.412c2.743,2.183 5.929,3.435 8.482,3.878c0.03,-0.006 0.06,-0.012 0.09,-0.018c-1.696,1.538 -2.871,4.239 -2.937,7.23c4.661,1.002 8.16,5.15 8.16,10.109c0,5.706 -4.633,10.339 -10.339,10.339c-0.42,0 -0.834,-0.025 -1.24,-0.074l0,3.584c0,3.7 -2.436,6.837 -5.79,7.892l0,14.143l-4.963,0ZM24.72,126.365c-2.183,-1.094 -3.926,-2.938 -4.89,-5.193c-0.964,2.255 -2.706,4.099 -4.889,5.193l0,4.673c0,2.698 2.191,4.889 4.889,4.889c2.699,0 4.89,-2.191 4.89,-4.889l0,-4.673ZM14.272,110.446l-0.001,0.007c-0.408,2.086 -1.5,3.865 -2.998,5.15c-0.63,0.759 -1.503,1.309 -2.499,1.528c-1.349,0.552 -2.842,0.785 -4.369,0.625c-0.594,0.063 -1.201,0.067 -1.814,0.008c0.329,3.977 3.666,7.106 7.727,7.106c4.28,0 7.755,-3.474 7.755,-7.754c0,-2.836 -1.526,-5.318 -3.801,-6.67ZM25.282,110.51c-2.216,1.366 -3.694,3.814 -3.694,6.606c0,4.28 3.475,7.754 7.754,7.754c4.062,0 7.398,-3.129 7.728,-7.106c-0.633,0.061 -1.26,0.054 -1.873,-0.014c-1.62,0.18 -3.203,-0.082 -4.618,-0.698c-0.698,-0.207 -1.327,-0.579 -1.839,-1.07c-1.725,-1.293 -2.998,-3.199 -3.458,-5.472ZM3.382,113.648c-0.523,1.043 -0.818,2.222 -0.818,3.468c0,0.046 0.001,0.092 0.001,0.137c0.681,-0.357 1.345,-0.837 1.964,-1.421c-0.567,-0.597 -0.973,-1.348 -1.147,-2.184ZM36.278,113.648c-0.174,0.836 -0.579,1.587 -1.146,2.184c0.619,0.584 1.283,1.064 1.963,1.421c0.001,-0.045 0.001,-0.091 0.001,-0.137c0,-1.246 -0.294,-2.425 -0.818,-3.468ZM25.16,107.659c0.277,-2.392 1.5,-4.568 3.351,-6.054c-1.891,-0.127 -3.819,-0.825 -5.458,-2.13c-1.603,-1.276 -2.701,-2.952 -3.261,-4.721c-0.56,1.769 -1.658,3.445 -3.261,4.721c-1.65,1.314 -3.594,2.012 -5.497,2.132c1.835,1.475 3.052,3.628 3.341,5.997c2.447,1.046 4.41,3.009 5.455,5.456c1.028,-2.405 2.942,-4.342 5.33,-5.401Z" style="fill:#151c24;"/></g></svg>