<?xml version="1.0" encoding="UTF-8" standalone="no"?>
<!DOCTYPE svg PUBLIC "-//W3C//DTD SVG 1.1//EN" "http://www.w3.org/Graphics/SVG/1.1/DTD/svg11.dtd">
<svg width="100%" height="100%" viewBox="0 0 40 150" version="1.1" xmlns="http://www.w3.org/2000/svg" xmlns:xlink="http://www.w3.org/1999/xlink" xml:space="preserve" style="fill-rule:evenodd;clip-rule:evenodd;stroke-linejoin:round;stroke-miterlimit:1.41421;">
    <g transform="matrix(1,0,0,1,-300,-0)">
        <g id="hand-hours" transform="matrix(0.56338,-1.12593e-18,-5.19504e-18,2.45902,127.606,-7.37705)">
            <clipPath id="_clip1">
                <rect x="306" y="3" width="71" height="61"/>
            </clipPath>
            <g clip-path="url(#_clip1)">
                <g transform="matrix(1.80694,8.27357e-19,3.81743e-18,0.413985,-236.082,2.3163)">
                    <path d="M317.042,149L317.042,135.107C313.747,134.07 311.354,130.989 311.354,127.354L311.354,123.834C310.955,123.882 310.548,123.907 310.136,123.907C304.53,123.907 299.979,119.356 299.979,113.75C299.979,108.879 303.416,104.804 307.996,103.82C307.935,101.072 306.92,98.572 305.426,97.024C305.305,96.935 305.186,96.842 305.071,96.745L305.129,96.735L305.11,96.718L305.164,96.729C307.665,96.287 310.776,95.059 313.455,92.926C314.728,91.912 315.824,90.758 316.729,89.575C316.644,89.305 316.598,89.017 316.598,88.719L316.598,54.594C316.598,53.024 317.872,51.75 319.442,51.75C321.011,51.75 322.286,53.024 322.286,54.594L322.286,88.719C322.286,89.017 322.24,89.305 322.154,89.575C323.06,90.758 324.156,91.912 325.429,92.926C328.122,95.07 331.252,96.301 333.76,96.736C333.789,96.729 333.819,96.723 333.849,96.718C332.183,98.228 331.028,100.882 330.963,103.82C335.542,104.804 338.979,108.879 338.979,113.75C338.979,119.356 334.429,123.907 328.823,123.907C328.411,123.907 328.004,123.882 327.604,123.834L327.604,127.354C327.604,130.989 325.212,134.07 321.917,135.107L321.917,149L317.042,149ZM324.283,122.836C322.138,121.761 320.426,119.95 319.479,117.734C318.533,119.95 316.821,121.761 314.676,122.836L314.676,127.426C314.676,130.077 316.828,132.229 319.479,132.229C322.13,132.229 324.283,130.077 324.283,127.426L324.283,122.836ZM314.02,107.198L314.018,107.205C313.617,109.254 312.545,111.002 311.073,112.265C310.455,113.01 309.597,113.55 308.619,113.765C307.294,114.307 305.827,114.536 304.326,114.379C303.743,114.441 303.147,114.445 302.545,114.386C302.868,118.293 306.146,121.367 310.136,121.367C314.34,121.367 317.753,117.954 317.753,113.75C317.753,110.964 316.254,108.526 314.02,107.198ZM324.835,107.261C322.658,108.603 321.206,111.008 321.206,113.75C321.206,117.954 324.619,121.367 328.823,121.367C332.813,121.367 336.09,118.293 336.414,114.386C335.792,114.446 335.176,114.44 334.574,114.373C332.983,114.55 331.428,114.292 330.039,113.688C329.352,113.484 328.735,113.119 328.231,112.636C326.537,111.366 325.286,109.494 324.835,107.261ZM303.322,110.343C302.808,111.369 302.518,112.526 302.518,113.75C302.518,113.795 302.519,113.84 302.52,113.885C303.188,113.534 303.841,113.062 304.448,112.489C303.891,111.903 303.493,111.164 303.322,110.343ZM335.637,110.343C335.466,111.164 335.067,111.903 334.51,112.489C335.118,113.062 335.771,113.534 336.439,113.885C336.44,113.84 336.44,113.795 336.44,113.75C336.44,112.526 336.151,111.369 335.637,110.343ZM324.715,104.461C324.987,102.11 326.189,99.973 328.006,98.513C326.149,98.389 324.255,97.703 322.645,96.422C321.071,95.168 319.991,93.521 319.442,91.783C318.892,93.521 317.813,95.168 316.239,96.422C314.617,97.712 312.708,98.398 310.839,98.516C312.641,99.964 313.836,102.079 314.121,104.407C316.524,105.434 318.452,107.363 319.479,109.766C320.489,107.404 322.369,105.501 324.715,104.461Z" style="fill:rgb(21,28,36);"/>
                </g>
            </g>
        </g>
    </g>
</svg>
