<?xml version="1.0" encoding="UTF-8" standalone="no"?>
<!DOCTYPE svg PUBLIC "-//W3C//DTD SVG 1.1//EN" "http://www.w3.org/Graphics/SVG/1.1/DTD/svg11.dtd">
<svg width="100%" height="100%" viewBox="0 0 40 150" version="1.1" xmlns="http://www.w3.org/2000/svg" xmlns:xlink="http://www.w3.org/1999/xlink" xml:space="preserve" style="fill-rule:evenodd;clip-rule:evenodd;stroke-linejoin:round;stroke-miterlimit:1.41421;">
    <g transform="matrix(1,0,0,1,-340,-0.00598958)">
        <g id="hand-minutes" transform="matrix(0.540541,-1.10923e-16,-2.23316e-16,2,131.892,0.00598958)">
            <g transform="matrix(1.85,1.02604e-16,2.06567e-16,0.5,-244,0.497005)">
                <path d="M363.032,149L357.032,149L357.032,135.718C353.246,134.46 350.513,130.887 350.513,126.682L350.513,119.071C348.101,116.643 346.61,113.3 346.61,109.611C346.61,105.927 348.097,102.588 350.504,100.161L346.383,97.854C346.358,97.847 346.334,97.84 346.309,97.833C349.36,96.751 352.67,93.071 354.115,88.216C355.56,83.361 354.801,78.47 352.839,75.896C352.9,75.914 352.96,75.933 353.02,75.952C352.985,75.844 352.967,75.734 352.967,75.622C352.967,75.08 353.391,74.576 354.12,74.154C353.333,73.005 352.873,71.615 352.873,70.118C352.873,67.167 354.661,64.631 357.213,63.536L357.213,24.383C357.213,22.827 358.476,21.564 360.032,21.564C361.588,21.564 362.851,22.827 362.851,24.383L362.851,63.536C365.403,64.631 367.191,67.167 367.191,70.118C367.191,71.615 366.731,73.005 365.944,74.154C366.673,74.576 367.097,75.08 367.097,75.622C367.097,75.993 366.897,76.348 366.537,76.669C364.967,79.376 364.463,83.811 365.774,88.216C367.219,93.071 370.53,96.751 373.58,97.833L373.525,97.849L373.691,97.849L369.56,100.161C371.967,102.588 373.454,105.927 373.454,109.611C373.454,113.3 371.963,116.643 369.551,119.071L369.551,126.682C369.551,130.887 366.818,134.46 363.032,135.718L363.032,149ZM353.321,121.236L353.321,126.192C353.321,129.896 356.328,132.903 360.032,132.903C363.736,132.903 366.743,129.896 366.743,126.192L366.743,121.236C364.768,122.379 362.476,123.034 360.032,123.034C357.588,123.034 355.296,122.379 353.321,121.236ZM353.582,101.885C351.372,103.732 349.965,106.509 349.965,109.611C349.965,115.167 354.476,119.678 360.032,119.678C365.588,119.678 370.099,115.167 370.099,109.611C370.099,106.509 368.692,103.732 366.482,101.885L360.032,105.496L353.582,101.885ZM356.177,77.869C358.896,80.514 359.998,85.061 358.656,89.568C357.395,93.804 354.307,96.889 350.849,97.849L353.565,97.849C355.484,96.791 357.688,96.189 360.032,96.189C362.376,96.189 364.58,96.791 366.499,97.849L369.04,97.849C365.582,96.889 362.494,93.804 361.233,89.568C359.901,85.092 360.979,80.577 363.657,77.924C362.597,78.165 361.357,78.304 360.032,78.304C358.61,78.304 357.286,78.144 356.177,77.869Z" style="fill:rgb(21,28,36);"/>
            </g>
        </g>
    </g>
</svg>
